<svg id="amazon-logo" xmlns="http://www.w3.org/2000/svg" width="115.876" height="34.912" viewBox="0 0 115.876 34.912">
  <g id="Group_173" data-name="Group 173" transform="translate(19.755 0.17)">
    <g id="Group_172" data-name="Group 172">
      <path id="Path_352" data-name="Path 352" d="M30.426,16.821a5.3,5.3,0,0,0-9.106,1.4c-1-2.322-2.41-3.41-4.653-3.41a4.74,4.74,0,0,0-4.725,3.41h-.06v-2.4a.671.671,0,0,0-.651-.615H7.888a.676.676,0,0,0-.692.662v18.4a.671.671,0,0,0,.642.607h3.588a.678.678,0,0,0,.689-.664V24.448c0-2.128-.1-5.073,2.471-5.073,2.548,0,2.215,3.02,2.215,5.073V34.2a.68.68,0,0,0,.648.664h3.58a.676.676,0,0,0,.692-.664V24.448a11.239,11.239,0,0,1,.332-3.528A2.382,2.382,0,0,1,24.2,19.413,1.867,1.867,0,0,1,26.305,21a23.228,23.228,0,0,1,.1,3.451V34.2a.682.682,0,0,0,.645.664h3.583a.678.678,0,0,0,.689-.664l.005-11.612C31.329,20.618,31.56,18.37,30.426,16.821Z" transform="translate(-7.196 -14.809)" fill="#adadad"/>
    </g>
  </g>
  <g id="Group_175" data-name="Group 175" transform="translate(82.186 0.173)">
    <g id="Group_174" data-name="Group 174">
      <path id="Path_353" data-name="Path 353" d="M38,14.81c-5.188,0-8.065,4.456-8.065,10.182,0,5.694,2.841,10.262,8.065,10.262,5.018,0,8.2-4.453,8.2-10.067C46.217,19.378,43.329,14.81,38,14.81Zm0,16.65c-2.811,0-2.781-4.8-2.781-7.05s.17-5.845,2.808-5.845a2.241,2.241,0,0,1,2.344,1.782,16.893,16.893,0,0,1,.538,4.881C40.924,27.589,40.79,31.46,38,31.46Z" transform="translate(-29.938 -14.81)" fill="#adadad"/>
    </g>
  </g>
  <g id="Group_177" data-name="Group 177" transform="translate(47.015 0)">
    <g id="Group_176" data-name="Group 176">
      <path id="Path_354" data-name="Path 354" d="M34.075,31.614a4.926,4.926,0,0,1-1.345-3.325V22.7c0-2.364.162-4.538-1.581-6.169a8.13,8.13,0,0,0-5.4-1.784c-3.41,0-7.223,1.271-8.019,5.488a.63.63,0,0,0,.533.752l3.475.373a.755.755,0,0,0,.626-.656,2.727,2.727,0,0,1,2.882-2.152,2.375,2.375,0,0,1,2.007.933,4.544,4.544,0,0,1,.439,2.6l0,.456c-2.078.239-4.8.39-6.742,1.246a6.088,6.088,0,0,0-3.821,5.861c0,3.725,2.344,5.589,5.361,5.589A7.1,7.1,0,0,0,28.4,32.627a8.651,8.651,0,0,0,2.056,2.394.756.756,0,0,0,.851-.082l.005.005c.717-.631,2.015-1.771,2.745-2.38A.674.674,0,0,0,34.075,31.614ZM27.69,26.192a6.968,6.968,0,0,1-.673,3.8,2.9,2.9,0,0,1-2.473,1.628c-1.381,0-2.188-1.046-2.188-2.6,0-3.055,2.74-3.61,5.334-3.61v.777Z" transform="translate(-17.126 -14.747)" fill="#adadad"/>
    </g>
  </g>
  <g id="Group_179" data-name="Group 179" transform="translate(101.142 0.167)">
    <g id="Group_178" data-name="Group 178">
      <path id="Path_355" data-name="Path 355" d="M50.638,16.98a4.729,4.729,0,0,0-4.192-2.172c-2.473,0-3.887,1.2-4.886,3.717H41.5V15.711a.688.688,0,0,0-.642-.516H37.535a.681.681,0,0,0-.692.6l.005,18.41a.683.683,0,0,0,.648.67h3.566a.691.691,0,0,0,.7-.67V24.3a8.055,8.055,0,0,1,.574-3.486,2.34,2.34,0,0,1,2.075-1.471c2.471,0,2.235,2.946,2.235,4.958v10a.683.683,0,0,0,.631.582h3.6a.7.7,0,0,0,.7-.582V22.712C51.577,20.93,51.577,18.456,50.638,16.98Z" transform="translate(-36.843 -14.808)" fill="#adadad"/>
    </g>
  </g>
  <g id="Group_181" data-name="Group 181" transform="translate(66.311 0.513)">
    <g id="Group_180" data-name="Group 180">
      <path id="Path_356" data-name="Path 356" d="M37.678,29.671a13,13,0,0,0-6.723-1.441l6.116-8.719c.563-.785.884-1.277.884-1.655V15.6a.654.654,0,0,0-.681-.667H25.489a.645.645,0,0,0-.664.667v2.633a.65.65,0,0,0,.681.662h6.16L24.589,29.042a3.183,3.183,0,0,0-.434,1.809v2.671c0,.384.436.826.843.6a13.567,13.567,0,0,1,12.444-.016c.45.231.867-.22.867-.6V30.692A1.207,1.207,0,0,0,37.678,29.671Z" transform="translate(-24.155 -14.934)" fill="#adadad"/>
    </g>
  </g>
  <g id="Group_183" data-name="Group 183" transform="translate(66.268 21.063)">
    <g id="Group_182" data-name="Group 182">
      <path id="Path_357" data-name="Path 357" d="M35.427,23.269c-.733-.909-7.047-1.691-10.9,1.013-.587.415-.491.988.17.911,2.166-.255,7-.835,7.854.264s-.958,5.647-1.773,7.673c-.25.615.283.862.837.4C35.237,30.517,36.165,24.186,35.427,23.269Z" transform="translate(-24.139 -22.419)" fill="#adadad"/>
    </g>
  </g>
  <g id="Group_185" data-name="Group 185" transform="translate(16.31 22.27)">
    <g id="Group_184" data-name="Group 184">
      <path id="Path_358" data-name="Path 358" d="M60.543,26.313a60.482,60.482,0,0,1-23.216,4.747A61.185,61.185,0,0,1,6.9,22.991c-.755-.445-1.318.332-.689.9A45.034,45.034,0,0,0,36.621,35.5c8.406,0,18.16-2.644,24.9-7.607C62.629,27.07,61.682,25.835,60.543,26.313Z" transform="translate(-5.941 -22.859)" fill="#adadad"/>
    </g>
  </g>
  <g id="Group_187" data-name="Group 187" transform="translate(0 0)">
    <g id="Group_186" data-name="Group 186">
      <path id="Path_359" data-name="Path 359" d="M16.952,31.614A4.916,4.916,0,0,1,15.6,28.289V22.7c0-2.364.167-4.538-1.576-6.169A8.14,8.14,0,0,0,8.62,14.747c-3.41,0-7.214,1.271-8.019,5.488a.637.637,0,0,0,.533.752l3.486.373a.756.756,0,0,0,.62-.656,2.73,2.73,0,0,1,2.885-2.152,2.393,2.393,0,0,1,2.009.933,4.61,4.61,0,0,1,.431,2.6v.461c-2.075.242-4.793.393-6.742,1.249A6.089,6.089,0,0,0,0,29.648c0,3.725,2.35,5.589,5.367,5.589A7.1,7.1,0,0,0,11.28,32.63a8.7,8.7,0,0,0,2.056,2.394.753.753,0,0,0,.848-.082l.011.005c.714-.631,2.012-1.771,2.748-2.38A.673.673,0,0,0,16.952,31.614Zm-6.385-5.422a6.992,6.992,0,0,1-.67,3.8,2.9,2.9,0,0,1-2.482,1.628c-1.375,0-2.174-1.046-2.174-2.6,0-3.055,2.737-3.61,5.326-3.61Z" transform="translate(0 -14.747)" fill="#adadad"/>
    </g>
  </g>
</svg>
