<svg xmlns="http://www.w3.org/2000/svg" width="685.71" height="438.879" viewBox="0 0 685.71 438.879">
  <g id="Group_31084" data-name="Group 31084" transform="translate(-130.8 -172.736)">
    <g id="Group_31073" data-name="Group 31073" transform="translate(686.124 369.202)">
      <path id="Path_99314" data-name="Path 99314" d="M988.834,539.3a192.216,192.216,0,0,1,81.533-73.159A236.52,236.52,0,0,1,1028.323,620c-16.48,23.373-39.713,44.874-68.2,47.459C960.708,622.013,964.516,579.1,988.834,539.3Z" transform="translate(-960.127 -466.14)" fill="#5cc78b"/>
      <path id="Path_99315" data-name="Path 99315" d="M1090.647,626.216c-.358,1.159-.716,2.319-1.117,3.456-.232.822-.506,1.623-.78,2.445-4.3,13.132-9.443,26.032-16.568,37.879-.632,1.033-1.265,2.066-1.939,3.078-.548.864-1.117,1.728-1.708,2.571a101.424,101.424,0,0,1-18,19.835c-.717.59-1.454,1.18-2.172,1.77a90.536,90.536,0,0,1-32,16.421c-1.307.358-2.614.7-3.942.99-1.918.422-3.858.8-5.818,1.1-9.612,1.475-19.6,1.285-28.709,4.658a38.6,38.6,0,0,0-15.872,11.067,3.16,3.16,0,0,0-.064-1.6c-.274-1.623-.862-4.032-1.138-5.228-.058-.254-.084-.464-.105-.591-1.476-15.7,6.2-31.239,16.062-43.106a99.069,99.069,0,0,1,10.687-10.94c1.033-.949,2.087-1.834,3.141-2.677a124.257,124.257,0,0,1,27.128-16.737c.885-.421,1.771-.822,2.677-1.2a162.625,162.625,0,0,1,15.261-5.839C1040.564,641.94,1089.593,626.553,1090.647,626.216Z" transform="translate(-960.262 -519.028)" fill="#2fac66"/>
      <path id="Path_99316" data-name="Path 99316" d="M1090.789,626.216c-.358,1.159-.716,2.319-1.117,3.456-11.362,14.4-23.25,27.55-38.047,37.773.548.359,1.475.338,2.782-.147,1.918.759,4.49.843,6.471,1.454a46.95,46.95,0,0,1,9.506,4.322c-.548.864-1.117,1.728-1.708,2.571-6.471-3.246-12.479-6.155-20.509-5.459a.924.924,0,0,1-.527-.105,112.458,112.458,0,0,1-13.553,7.314c-2.445,1.117-4.912,2.171-7.4,3.225a54.416,54.416,0,0,1,6.282,1.56,44.046,44.046,0,0,1,7.272,4.257,73.314,73.314,0,0,1,10.435,9.043c-.717.59-1.454,1.18-2.172,1.77-7.694-6.766-15.135-13.406-25.59-15.05-10.939,4.574-21.922,8.937-31.681,14.65,9.591,1.327,20.594,8.431,25.274,16.821-1.307.358-2.614.7-3.942.99-2.761-3.225-5.459-6.45-9.127-8.959-4.911-3.351-10.287-4.784-15.64-6.745-11.277,7.251-20.594,16.652-25.7,30.923-.274-1.623-.885-4.026-1.138-5.228,3.942-11.4,12.627-20.215,22.892-27.234,1.5-6.409,3.288-12.479,3.752-19.119a67.732,67.732,0,0,0,0-8.284c1.033-.949,2.087-1.834,3.141-2.677a56.051,56.051,0,0,1-3.584,27.909c8.811-5.565,18.487-9.949,27.171-13.617,1.539-.654,3.057-1.307,4.575-1.961,1.56-10.286.7-19.1-1.033-29.068.885-.421,1.771-.822,2.677-1.2a44.539,44.539,0,0,1,3.12,16.294c.042,3.267-1.75,8.937-.717,12.226a194.275,194.275,0,0,0,24.072-12.036c.527-4.152,2-8.031,2.8-12.268a61.958,61.958,0,0,0,.7-14.776c.885-.3,1.749-.569,2.634-.843,1.623,7.588.358,14.755-1.349,22.955a5.067,5.067,0,0,0-.991,2.508,101.06,101.06,0,0,0,10.1-7.589c9.949-8.6,18.55-18.465,26.728-28.667C1088.7,626.869,1089.735,626.553,1090.789,626.216Z" transform="translate(-960.404 -519.028)" fill="#5cc78b"/>
    </g>
    <g id="Group_31077" data-name="Group 31077" transform="translate(506.522 172.736)">
      <g id="Group_31074" data-name="Group 31074" transform="translate(0)">
        <path id="Path_99317" data-name="Path 99317" d="M840.968,172.736h-80.2c-48.65,0-68.865,20.194-68.865,68.865V518.62c0,48.671,20.215,68.865,68.865,68.865h80.2c48.65,0,68.865-20.193,68.865-68.865V241.6C909.833,192.93,889.618,172.736,840.968,172.736Z" transform="translate(-691.907 -172.736)" fill="#0f3d63"/>
        <path id="Path_99318" data-name="Path 99318" d="M767.321,580.756c-40.894,0-55.575-14.095-55.575-55.576V248.144c0-41.555,14.749-55.574,55.575-55.574h79.311c40.894,0,55.575,14.095,55.575,55.575V525.181c0,40.9-14.094,55.576-55.575,55.576Z" transform="translate(-698.462 -179.289)" fill="#fff"/>
        <path id="Path_99319" data-name="Path 99319" d="M870.546,360.6c.773-4.216,25.208-63.08-37.039-95.9a788.724,788.724,0,0,1,60.89-54.057c-8.159-13-23.245-18.075-47.765-18.075H829.12c-54.607,47.436-85.536,83.018-117.374,128.477V429.927c12.573-23.435,25.484-44.9,38.823-64.786a71.569,71.569,0,0,0,64.377,40.264c.763,0,1.525-.012,2.281-.035C773.954,447.821,755.305,484,720.3,563.807c5.653,8.267,14.361,13.12,26.826,15.384,26.6-94.5,81.235-154.84,155.078-214.727V333.511C896.326,338.127,875.923,356.322,870.546,360.6Z" transform="translate(-698.462 -179.289)" fill="#f6f6f6"/>
        <path id="Path_99320" data-name="Path 99320" d="M862.807,178.572H820.642c-4.963,0-4.966,5.464,0,5.464h42.165C867.77,184.036,867.773,178.572,862.807,178.572Z" transform="translate(-733.21 -174.664)" fill="#0a2740"/>
        <path id="Path_99321" data-name="Path 99321" d="M866.172,744.1H810.724c-4.963,0-4.966,5.464,0,5.464h55.448C871.134,749.56,871.137,744.1,866.172,744.1Z" transform="translate(-729.933 -361.509)" fill="#e0e0e0"/>
        <path id="Path_99322" data-name="Path 99322" d="M756.18,213.242h-5.487c-4.962,0-4.966,5.465,0,5.465h5.487C761.143,218.707,761.146,213.242,756.18,213.242Z" transform="translate(-710.099 -186.119)" fill="#19619e"/>
        <path id="Path_99323" data-name="Path 99323" d="M782.349,213.242h-5.487c-4.962,0-4.966,5.465,0,5.465h5.487C787.312,218.707,787.315,213.242,782.349,213.242Z" transform="translate(-718.745 -186.119)" fill="#19619e"/>
        <path id="Path_99324" data-name="Path 99324" d="M798.217,178.571c-3.622,0-3.625,5.465,0,5.465S801.842,178.571,798.217,178.571Z" transform="translate(-726.133 -174.664)" fill="#0a2740"/>
        <path id="Path_99325" data-name="Path 99325" d="M912.215,213.242c-3.622,0-3.625,5.465,0,5.465S915.84,213.242,912.215,213.242Z" transform="translate(-763.797 -186.119)" fill="#19619e"/>
        <path id="Path_99326" data-name="Path 99326" d="M925.349,213.242c-3.623,0-3.625,5.465,0,5.465S928.974,213.242,925.349,213.242Z" transform="translate(-768.136 -186.119)" fill="#19619e"/>
        <path id="Path_99327" data-name="Path 99327" d="M938.483,213.242c-3.623,0-3.625,5.465,0,5.465S942.108,213.242,938.483,213.242Z" transform="translate(-772.476 -186.119)" fill="#19619e"/>
        <path id="Path_99328" data-name="Path 99328" d="M951.617,213.242c-3.623,0-3.625,5.465,0,5.465S955.242,213.242,951.617,213.242Z" transform="translate(-776.815 -186.119)" fill="#19619e"/>
      </g>
      <g id="Group_31076" data-name="Group 31076" transform="translate(55.814 97.924)">
        <path id="Path_99329" data-name="Path 99329" d="M883.913,373.3a54.329,54.329,0,0,1-104.789,20.134c-.525-1.3-.994-2.613-1.418-3.964q-.8-2.613-1.363-5.349A53.982,53.982,0,0,1,775.26,373.3c0-1.183.033-2.356.111-3.517a54.323,54.323,0,0,1,51.893-50.753c.77-.044,1.541-.056,2.322-.056a53.872,53.872,0,0,1,11.7,1.273c.871.179,1.72.391,2.569.625A54.337,54.337,0,0,1,883.913,373.3Z" transform="translate(-775.26 -318.976)" fill="#f9b233"/>
        <g id="Group_31075" data-name="Group 31075" transform="translate(34.673 17.564)">
          <path id="Path_99330" data-name="Path 99330" d="M855.978,381.612c-5-2.709-20.914-4.841-14.182-13.939,2.167-2.93,5.337-3.649,8.8-3.163,2.729.383,9.529,5.714,11.851,1.844,2.577-4.3-4.445-8.04-6.877-9.256a16.323,16.323,0,0,0-8.39-1.541,20.063,20.063,0,0,0-15.061,8.276,14.33,14.33,0,0,0-2.368,6.136c-.936,7.127,4.571,12.8,10.538,15.665,5.456,2.622,14.885,2.17,16.876,9.262a8.154,8.154,0,0,1,.242,2.6c-.156,3.148-1.921,6.552-5,7.235-5.163,1.147-11.984-1.13-15.1-5.487-3.987-5.569-13.3-.214-9.271,5.419,9.407,13.142,35.88,14.919,38.2-5C867.121,392.089,862.482,385.139,855.978,381.612Z" transform="translate(-827.041 -348.612)" fill="#fff4bf"/>
          <path id="Path_99331" data-name="Path 99331" d="M858.4,347.4c-.579-1.405-1.319-2.22-2.263-2.2-3.027.076-4.1,6.046-4.108,8.815-.023,9.661.583,19.116.81,28.638.129,5.433-.037,10.868.035,16.3.074,5.5.016,10.883.991,16.337.365,2.04,2.579,5.233,4.379,2.15a6.549,6.549,0,0,0,.676-2.386c1.566-10.678.745-21.615,1-32.4C860.024,378.52,861.449,354.794,858.4,347.4Z" transform="translate(-835.298 -345.206)" fill="#fff4bf"/>
        </g>
        <path id="Path_99332" data-name="Path 99332" d="M841.289,320.249l-64.946,63.874A53.982,53.982,0,0,1,775.26,373.3c0-1.183.033-2.356.111-3.517l51.893-50.753c.77-.044,1.541-.056,2.322-.056A53.872,53.872,0,0,1,841.289,320.249Z" transform="translate(-775.26 -318.976)" fill="#ffcb6e"/>
        <path id="Path_99333" data-name="Path 99333" d="M806.36,388.393c-4.389,5.985-10.251,11.032-15.421,16.348-3.562,3.663-7.035,7.459-10.609,11.144-.525-1.3-.994-2.613-1.418-3.964,3.126-3.283,6.365-6.466,9.559-9.648,5.226-5.215,10.418-11.067,16.56-15.209C805.813,386.539,806.929,387.6,806.36,388.393Z" transform="translate(-776.467 -341.425)" fill="#ffcb6e"/>
        <path id="Path_99334" data-name="Path 99334" d="M833.9,423.2a45.589,45.589,0,1,1,45.589-45.59A45.641,45.641,0,0,1,833.9,423.2Zm0-90.061a44.472,44.472,0,1,0,44.473,44.471A44.523,44.523,0,0,0,833.9,333.14Z" transform="translate(-779.571 -323.287)" fill="#fff4bf"/>
      </g>
    </g>
    <path id="Path_99335" data-name="Path 99335" d="M882.487,572.076V574.8a8.078,8.078,0,0,1-8.073,8.094H774.373A8.078,8.078,0,0,1,766.3,574.8v-2.719a8.078,8.078,0,0,1,8.073-8.094h100.04A8.078,8.078,0,0,1,882.487,572.076Z" transform="translate(-209.964 -129.264)" fill="#b2b2b2"/>
    <path id="Path_99336" data-name="Path 99336" d="M835.207,563.982V582.89H774.373A8.078,8.078,0,0,1,766.3,574.8v-2.719a8.078,8.078,0,0,1,8.073-8.094Z" transform="translate(-209.964 -129.264)" fill="#9d9d9c"/>
    <path id="Path_99337" data-name="Path 99337" d="M421.277,316.891a.835.835,0,0,1-.767-1.165,54,54,0,0,1,5.244-8.77.835.835,0,1,1,1.363.966,53.436,53.436,0,0,0-5.072,8.466A.837.837,0,0,1,421.277,316.891Zm11.411-16.451a.825.825,0,0,1-.555-.212.834.834,0,0,1-.068-1.179c2.19-2.457,4.574-4.879,7.084-7.2a.835.835,0,0,1,1.134,1.225c-2.471,2.285-4.818,4.669-6.973,7.084A.831.831,0,0,1,432.688,300.44Zm247.52-.783a.836.836,0,0,1-.54-.2c-2.534-2.147-5.148-4.257-7.771-6.274a.835.835,0,0,1,1.018-1.324c2.644,2.032,5.279,4.159,7.834,6.323a.835.835,0,0,1-.54,1.472Zm-15.9-12.21a.838.838,0,0,1-.475-.148c-2.743-1.9-5.55-3.749-8.341-5.481a.835.835,0,0,1,.88-1.42c2.817,1.748,5.647,3.609,8.414,5.528a.835.835,0,0,1-.478,1.521Zm-216.936-.61a.835.835,0,0,1-.51-1.5c2.615-2.02,5.384-3.981,8.228-5.83a.836.836,0,1,1,.91,1.4c-2.806,1.823-5.538,3.756-8.118,5.749A.826.826,0,0,1,447.373,286.837Zm199.91-9.958a.818.818,0,0,1-.4-.1c-2.9-1.6-5.88-3.138-8.862-4.578a.835.835,0,0,1,.727-1.5c3.007,1.451,6.016,3.006,8.942,4.62a.835.835,0,0,1-.405,1.566Zm-183.135-.96a.835.835,0,0,1-.4-1.567c2.895-1.584,5.923-3.1,9-4.519a.836.836,0,0,1,.7,1.519c-3.043,1.4-6.036,2.9-8.9,4.465A.827.827,0,0,1,464.147,275.919Zm165.1-7.744a.822.822,0,0,1-.321-.065c-3.068-1.276-6.2-2.478-9.308-3.57a.835.835,0,0,1,.553-1.576c3.139,1.1,6.3,2.317,9.4,3.6a.836.836,0,0,1-.321,1.607Zm-146.919-.624a.836.836,0,0,1-.3-1.616c3.092-1.183,6.289-2.3,9.5-3.313a.836.836,0,0,1,.5,1.594c-3.18,1-6.344,2.105-9.405,3.278A.839.839,0,0,1,482.326,267.551Zm128.027-6.018a.839.839,0,0,1-.231-.034c-3.194-.921-6.44-1.758-9.65-2.489a.834.834,0,0,1-.628-1,.843.843,0,0,1,1-.628c3.24.737,6.518,1.582,9.742,2.513a.835.835,0,0,1-.231,1.638Zm-108.948-.03a.836.836,0,0,1-.208-1.645c3.191-.819,6.489-1.574,9.8-2.245a.846.846,0,0,1,.985.653.837.837,0,0,1-.653.985c-3.285.665-6.555,1.414-9.718,2.225A.837.837,0,0,1,501.405,261.5Zm19.615-3.994a.835.835,0,0,1-.126-1.661c3.259-.5,6.61-.948,9.961-1.317a.834.834,0,1,1,.184,1.659c-3.327.369-6.654.809-9.891,1.31A.828.828,0,0,1,521.02,257.509Zm69.817-.423a.712.712,0,0,1-.141-.011c-3.246-.546-6.566-1.008-9.869-1.374a.835.835,0,0,1,.184-1.659c3.333.368,6.685.836,9.962,1.387a.834.834,0,0,1-.137,1.657Zm-49.919-1.793a.835.835,0,0,1-.058-1.667c3.27-.231,6.644-.406,10.03-.521a.826.826,0,0,1,.863.806.835.835,0,0,1-.806.863c-3.366.115-6.72.288-9.971.518Zm30.025-.41c-3.331-.181-6.682-.274-10.007-.275a.835.835,0,1,1,0-1.669c3.357,0,6.738.094,10.052.277a.835.835,0,0,1-.044,1.668Z" transform="translate(-95.695 -26.499)" fill="#999898"/>
    <g id="Group_31080" data-name="Group 31080" transform="translate(197.342 263.166)">
      <path id="Path_99338" data-name="Path 99338" d="M514.957,490.943V669.378a29.311,29.311,0,0,1-29.318,29.317H259.492a29.31,29.31,0,0,1-29.317-29.317V490.943a29.327,29.327,0,0,1,29.317-29.336H485.639A29.327,29.327,0,0,1,514.957,490.943Z" transform="translate(-230.175 -358.607)" fill="#31a0ff"/>
      <g id="Group_31079" data-name="Group 31079" transform="translate(69.75)">
        <path id="Path_99339" data-name="Path 99339" d="M479.622,380.425a72.644,72.644,0,0,1-140.115,26.922c-.7-1.732-1.329-3.494-1.9-5.3-.716-2.329-1.329-4.718-1.821-7.152a72.113,72.113,0,0,1-1.449-14.469c0-1.582.045-3.15.149-4.7a72.636,72.636,0,0,1,69.386-67.863c1.03-.06,2.06-.074,3.106-.074a71.963,71.963,0,0,1,15.647,1.7c1.165.239,2.3.522,3.434.836A72.655,72.655,0,0,1,479.622,380.425Z" transform="translate(-334.34 -307.785)" fill="#f9b233"/>
        <g id="Group_31078" data-name="Group 31078" transform="translate(46.362 23.485)">
          <path id="Path_99340" data-name="Path 99340" d="M442.271,391.537c-6.683-3.623-27.964-6.473-18.963-18.639,2.9-3.918,7.136-4.879,11.765-4.229,3.65.513,12.741,7.64,15.846,2.466,3.446-5.743-5.943-10.75-9.2-12.376A21.825,21.825,0,0,0,430.5,356.7c-7.791.527-15.714,4.523-20.138,11.067a19.146,19.146,0,0,0-3.167,8.2c-1.252,9.53,6.112,17.113,14.089,20.946,7.3,3.506,19.9,2.9,22.566,12.384a10.913,10.913,0,0,1,.323,3.482c-.208,4.21-2.569,8.761-6.683,9.675-6.9,1.533-16.024-1.511-20.2-7.336-5.331-7.447-17.787-.287-12.4,7.246,12.579,17.571,47.976,19.948,51.084-6.685C457.17,405.545,450.967,396.251,442.271,391.537Z" transform="translate(-403.578 -347.411)" fill="#fff4bf"/>
          <path id="Path_99341" data-name="Path 99341" d="M445.514,345.8c-.775-1.878-1.764-2.968-3.025-2.937-4.048.1-5.484,8.084-5.493,11.786-.031,12.919.779,25.56,1.082,38.292.173,7.265-.05,14.531.048,21.8.1,7.358.021,14.553,1.325,21.845.487,2.729,3.447,7,5.855,2.875a8.749,8.749,0,0,0,.9-3.191c2.094-14.277,1-28.9,1.34-43.326C447.681,387.4,449.586,355.677,445.514,345.8Z" transform="translate(-414.619 -342.858)" fill="#fff4bf"/>
        </g>
        <path id="Path_99342" data-name="Path 99342" d="M422.629,309.487l-86.84,85.407a72.113,72.113,0,0,1-1.449-14.469c0-1.582.045-3.15.149-4.7l69.386-67.863c1.03-.06,2.06-.074,3.106-.074A71.963,71.963,0,0,1,422.629,309.487Z" transform="translate(-334.34 -307.785)" fill="#ffcb6e"/>
        <path id="Path_99343" data-name="Path 99343" d="M375.925,400.6c-5.868,8-13.707,14.752-20.621,21.859-4.763,4.9-9.407,9.974-14.184,14.9-.7-1.732-1.329-3.494-1.9-5.3,4.18-4.39,8.511-8.645,12.781-12.9,6.988-6.973,13.931-14.8,22.143-20.336C375.193,398.124,376.687,399.543,375.925,400.6Z" transform="translate(-335.954 -337.802)" fill="#ffcb6e"/>
        <path id="Path_99344" data-name="Path 99344" d="M412.743,447.145A60.957,60.957,0,1,1,473.7,386.187,61.026,61.026,0,0,1,412.743,447.145Zm0-120.422a59.465,59.465,0,1,0,59.465,59.465A59.532,59.532,0,0,0,412.743,326.723Z" transform="translate(-340.104 -313.549)" fill="#fff4bf"/>
      </g>
      <path id="Path_99345" data-name="Path 99345" d="M514.957,503.43V681.864a29.311,29.311,0,0,1-29.318,29.318H259.492a29.311,29.311,0,0,1-29.317-29.318V503.43a29.327,29.327,0,0,1,29.317-29.337H485.639A29.328,29.328,0,0,1,514.957,503.43Z" transform="translate(-230.175 -362.732)" fill="#0089ff"/>
      <path id="Path_99346" data-name="Path 99346" d="M250.256,493.455h-11.8a1.947,1.947,0,1,0,0,3.894h11.8a1.947,1.947,0,0,0,0-3.894Zm23.594,0h-11.8a1.947,1.947,0,0,0,0,3.894h11.8a1.947,1.947,0,0,0,0-3.894Zm23.594,0h-11.8a1.947,1.947,0,0,0,0,3.894h11.8a1.947,1.947,0,0,0,0-3.894Zm23.594,0h-11.8a1.947,1.947,0,0,0,0,3.894h11.8a1.947,1.947,0,0,0,0-3.894Zm23.594,0h-11.8a1.947,1.947,0,0,0,0,3.894h11.8a1.947,1.947,0,0,0,0-3.894Zm23.574,0H356.429a1.947,1.947,0,1,0,0,3.894h11.777a1.947,1.947,0,1,0,0-3.894Zm23.594,0H380a1.947,1.947,0,0,0,0,3.894h11.8a1.947,1.947,0,0,0,0-3.894Zm23.594,0H403.6a1.947,1.947,0,0,0,0,3.894h11.8a1.947,1.947,0,0,0,0-3.894Zm23.594,0h-11.8a1.947,1.947,0,0,0,0,3.894h11.8a1.947,1.947,0,1,0,0-3.894Zm23.594,0h-11.8a1.947,1.947,0,0,0,0,3.894h11.8a1.947,1.947,0,0,0,0-3.894Zm23.632.019-11.835-.019a1.947,1.947,0,1,0,0,3.894h11.738a1.938,1.938,0,1,0,.1-3.874Zm11.973,4.847a1.949,1.949,0,1,0-2.648,2.862,14.377,14.377,0,0,1,4.575,9.071,1.96,1.96,0,0,0,1.947,1.752c.058,0,.137-.019.195-.019a1.946,1.946,0,0,0,1.732-2.141A18.289,18.289,0,0,0,498.187,498.322Zm3.952,21.569a1.953,1.953,0,0,0-1.947,1.947v11.8a1.947,1.947,0,0,0,3.894,0v-11.8A1.94,1.94,0,0,0,502.139,519.891Zm0,23.594a1.953,1.953,0,0,0-1.947,1.947v11.8a1.947,1.947,0,1,0,3.894,0v-11.8A1.94,1.94,0,0,0,502.139,543.485Zm0,23.594a1.953,1.953,0,0,0-1.947,1.947v11.8a1.947,1.947,0,0,0,3.894,0v-11.8A1.94,1.94,0,0,0,502.139,567.079Zm0,23.594a1.953,1.953,0,0,0-1.947,1.947v11.8a1.947,1.947,0,0,0,3.894,0v-11.8A1.94,1.94,0,0,0,502.139,590.673Zm0,23.594a1.953,1.953,0,0,0-1.947,1.947v11.8a1.947,1.947,0,1,0,3.894,0v-11.8A1.94,1.94,0,0,0,502.139,614.267Zm0,23.594a1.94,1.94,0,0,0-1.947,1.947v11.8a1.947,1.947,0,0,0,3.894,0v-11.8A1.928,1.928,0,0,0,502.139,637.861Zm0,23.574a1.953,1.953,0,0,0-1.947,1.947v11.8a1.947,1.947,0,0,0,3.894,0v-11.8A1.94,1.94,0,0,0,502.139,661.435Zm.116,23.614a1.934,1.934,0,0,0-2.141,1.732,14.425,14.425,0,0,1-4.536,9.091,1.941,1.941,0,0,0-.117,2.745,1.917,1.917,0,0,0,1.44.623,2.009,2.009,0,0,0,1.324-.506,18.287,18.287,0,0,0,5.762-11.563A1.928,1.928,0,0,0,502.255,685.049ZM250.315,699.726h-11.8a1.947,1.947,0,0,0,0,3.894h11.8a1.947,1.947,0,0,0,0-3.894Zm23.574,0H262.111a1.947,1.947,0,0,0,0,3.894h11.778a1.947,1.947,0,0,0,0-3.894Zm23.594,0h-11.8a1.947,1.947,0,1,0,0,3.894h11.8a1.947,1.947,0,1,0,0-3.894Zm23.594,0h-11.8a1.947,1.947,0,0,0,0,3.894h11.8a1.947,1.947,0,0,0,0-3.894Zm23.594,0h-11.8a1.947,1.947,0,0,0,0,3.894h11.8a1.947,1.947,0,0,0,0-3.894Zm23.594,0h-11.8a1.947,1.947,0,1,0,0,3.894h11.8a1.947,1.947,0,1,0,0-3.894Zm23.594,0h-11.8a1.947,1.947,0,0,0,0,3.894h11.8a1.947,1.947,0,0,0,0-3.894Zm23.594,0h-11.8a1.947,1.947,0,1,0,0,3.894h11.8a1.947,1.947,0,1,0,0-3.894Zm23.575,0h-11.8a1.947,1.947,0,0,0,0,3.894h11.8a1.947,1.947,0,0,0,0-3.894Zm23.594,0h-11.8a1.947,1.947,0,0,0,0,3.894h11.8a1.947,1.947,0,0,0,0-3.894Zm23.535,0H474.418a1.947,1.947,0,1,0,0,3.894h11.855a1.953,1.953,0,0,0,1.888-2.005A1.988,1.988,0,0,0,486.156,699.726Z" transform="translate(-232.269 -369.129)" fill="#cfdbff"/>
      <path id="Rectangle_6958" data-name="Rectangle 6958" d="M29.573,0H65.856A29.573,29.573,0,0,1,95.43,29.573v0A29.573,29.573,0,0,1,65.857,59.146H29.573A29.573,29.573,0,0,1,0,29.573v0A29.573,29.573,0,0,1,29.573,0Z" transform="translate(198.802 200.335)" fill="#0058ff"/>
      <circle id="Ellipse_786" data-name="Ellipse 786" cx="17.645" cy="17.645" r="17.645" transform="translate(213.962 212.264)" fill="#0089ff"/>
    </g>
    <g id="Group_31081" data-name="Group 31081" transform="translate(478.243 291.717)">
      <path id="Path_99347" data-name="Path 99347" d="M805.84,807.4a39.362,39.362,0,0,1,1.583,6.079c.064.332.127.681.19,1.045.206,1.124.411,2.407.6,3.832.19,1.314,19.156,2.659,21.229,1.235,2.058-1.425-.332-2.09-.332-2.09-2.692-.08-8.517-1.789-10.48-3.072-5.526-3.609-5.62-8.073-5.62-8.073C809.212,801.071,805.84,807.4,805.84,807.4Z" transform="translate(-701.271 -500.364)" fill="#f5a784"/>
      <path id="Path_99348" data-name="Path 99348" d="M672.052,819.2c2.106,1.456,21.482.08,21.672-1.282.19-1.44.459-2.739.617-3.894.016-.111.031-.206.048-.3.76-5.635.9-7.9.9-7.9s-4.148-5.572-8.042-.174c0,0,.475,6.016-4.163,8.264-.19.1-.4.19-.65.3-2.485,1.092-7.551,2.77-10.068,2.85C672.368,817.059,669.946,817.74,672.052,819.2Z" transform="translate(-656.784 -500.047)" fill="#f5a784"/>
      <path id="Path_99349" data-name="Path 99349" d="M684.814,594.352c.729,49.931,5.589,129.67,5.589,129.67a17.374,17.374,0,0,0,3.325,1.2,16.2,16.2,0,0,0,6.823.3S713.9,579.8,715.131,573.059c.68-3.736,2.3-4.084,3.609-3.641a3.74,3.74,0,0,1,2.311,2.438c3.119,9.372,17.763,69.465,19.5,75.846,1.837,6.743,23.936,77.332,23.936,77.332a15.073,15.073,0,0,0,4.258.475,11.524,11.524,0,0,0,6.712-2.312s-9.8-64.669-12.253-79.375c-2.438-14.691-18.665-93.909-18.665-93.909h-58.02c-.475,4.829-1.108,11.414-1.805,32.485C684.608,586.12,684.751,590.141,684.814,594.352Z" transform="translate(-661.24 -416.334)" fill="#002f57"/>
      <path id="Path_99350" data-name="Path 99350" d="M808.2,818.037c.064.332.127.681.19,1.045.206,1.124.411,2.407.6,3.832.19,1.314,19.156,2.659,21.229,1.235,2.058-1.425-.332-2.09-.332-2.09-2.692-.08-8.517-1.789-10.48-3.072A23.422,23.422,0,0,1,808.2,818.037Z" transform="translate(-702.052 -504.919)" fill="#112545"/>
      <path id="Path_99351" data-name="Path 99351" d="M672.052,824.341c2.106,1.456,21.482.08,21.672-1.282.19-1.44.459-2.739.617-3.894.016-.111.031-.206.048-.3a38.6,38.6,0,0,1-11.953.491c-2.485,1.092-7.551,2.77-10.068,2.85C672.368,822.2,669.946,822.885,672.052,824.341Z" transform="translate(-656.784 -505.192)" fill="#112545"/>
      <path id="Path_99352" data-name="Path 99352" d="M806.738,482.953s10.37-9.646-5.352-27.047c-14.784-16.366-26.6-28.005-26.6-28.005l6.174,40.657Z" transform="translate(-691.013 -376.021)" fill="#f5a784"/>
      <path id="Path_99353" data-name="Path 99353" d="M703.851,355.4a5.144,5.144,0,0,0-.8-.6c-.6-.354-1.26-.484-1.875-.784-.329-.161-.126-.591.169-.623a3.589,3.589,0,0,1,2.962,1.531,18.47,18.47,0,0,1,.07-2.2c.072-.849.07-1.883.923-2.289.07-.034.177.023.146.112a10.4,10.4,0,0,0-.36,4.024c5.183-5.121,17.24-4.073,21.5.72,3.32,3.74,3.216,11.989,3.216,11.989-.49,3.515-29.18,4.861-29.18,4.861s-.354-2.057-.751-8.917C699.585,358.355,702.452,356.133,703.851,355.4Z" transform="translate(-666.252 -350.423)" fill="#030303"/>
      <path id="Path_99354" data-name="Path 99354" d="M740.544,375.9s2.368-2.842,4.737,0-1.658,8.282-4.737,8.522C740.544,384.419,740.189,377.12,740.544,375.9Z" transform="translate(-679.646 -358.422)" fill="#e0855c"/>
      <path id="Path_99355" data-name="Path 99355" d="M674.681,414.332c1.53,3.646,7.217,17.667,9.05,29.045.974,6.056,4.717,26.87,4.717,26.87,21.446,5.9,45.03,0,45.03,0s12.949-54.333,2.986-60.734c-4.914-3.165-20.828-3.1-20.828-3.1l-1.016-10.886a22.028,22.028,0,0,1-17.769-4.338,59.562,59.562,0,0,1,.733,7.125c.262,4.348.293,8.528.293,8.528a47.679,47.679,0,0,0-22.724,6.055A1.161,1.161,0,0,0,674.681,414.332Z" transform="translate(-657.908 -363.891)" fill="#f5a784"/>
      <path id="Path_99356" data-name="Path 99356" d="M707.833,391.188c2.755,12.51,15.342,11.652,18.3,10l-.528-5.66A22.028,22.028,0,0,1,707.833,391.188Z" transform="translate(-668.89 -363.891)" fill="#e0855c"/>
      <path id="Path_99357" data-name="Path 99357" d="M728.653,362.541c1.574,1.637,1.7,5.309,1.835,9.37.4,12.292-3.284,16.132-9.563,16.808s-12.848-1.739-14.2-13.137c-.676-5.7-1.4-10.965.676-13.427C710.493,358.484,723.823,357.518,728.653,362.541Z" transform="translate(-668.296 -353.285)" fill="#f5a784"/>
      <path id="Path_99358" data-name="Path 99358" d="M705.42,379.7s-1.922-5.092-4.954-2.393,1.158,10.389,5.8,9.818C706.262,387.12,706.9,381.437,705.42,379.7Z" transform="translate(-666.116 -359.043)" fill="#f5a784"/>
      <path id="Path_99359" data-name="Path 99359" d="M671.559,421.34a8.368,8.368,0,0,0-5.866,3.785c-4.15,6.266-12.9,52.612-12.919,61.924-.033,16.5,7.759,45.884,7.759,45.884s6.868,1.474,9.462-4.184c0,0-2.133-35.92-1.425-42.284s6.854-31.588,9.674-42.2C680.71,434.986,680.116,420.289,671.559,421.34Z" transform="translate(-650.699 -373.836)" fill="#f5a784"/>
      <path id="Path_99360" data-name="Path 99360" d="M702.956,381.147a4.282,4.282,0,0,1,1.842,1.2,5.17,5.17,0,0,1,1.354,1.722c.079.206-.208.332-.348.2-.393-.366-.708-.8-1.075-1.2a2.419,2.419,0,0,1-.89.7c-.279.1-.486-.244-.364-.473a2.177,2.177,0,0,1,.734-.7,11.246,11.246,0,0,1-1.464-1.1A.217.217,0,0,1,702.956,381.147Z" transform="translate(-667.19 -360.573)" fill="#e0855c"/>
      <path id="Path_99361" data-name="Path 99361" d="M727.2,380.673c.538-.081,1.773.241,2.026-.341.211-.484-.655-3.341-.777-3.831a48.407,48.407,0,0,1-1.239-5.081.1.1,0,0,1,.187-.051c1.247,2.814,1.711,6.3,2.466,9.285a.267.267,0,0,1-.255.335c-.79-.013-1.556.154-2.344.159C727,381.148,726.926,380.713,727.2,380.673Z" transform="translate(-675.232 -357.327)" fill="#e0855c"/>
      <path id="Path_99362" data-name="Path 99362" d="M732.676,369.124c.761-.388,2.184-.491,2.738.3a.236.236,0,0,1-.2.354c-.378-.019-.712-.2-1.091-.234a3.066,3.066,0,0,0-1.19.183A.331.331,0,0,1,732.676,369.124Z" transform="translate(-677.045 -356.504)" fill="#112545"/>
      <path id="Path_99363" data-name="Path 99363" d="M716.025,370.2c.434-1.08,2.32-1.183,3.125-.513a.3.3,0,0,1-.133.5,6.936,6.936,0,0,1-1.454.013,4.75,4.75,0,0,0-1.166.367A.3.3,0,0,1,716.025,370.2Z" transform="translate(-671.591 -356.648)" fill="#112545"/>
      <path id="Path_99364" data-name="Path 99364" d="M650.343,487.037a17.292,17.292,0,0,0,2.438,1.805,15.325,15.325,0,0,0,1.409.759c7.408,3.467,13.947-1.393,13.947-1.393l7.363-37.744s-.05,16.673-.065,17.274c-.064,3.657-.649,18.285-.7,18.981-.3,5.779-.728,11.841-1.314,17.889-.047.538-.11,1.077-.158,1.615a.651.651,0,0,0,.332.554c.966.76,3.926,1.472,8.074,2.042.617.1,1.266.19,1.947.269,3.91.475,8.627.855,13.6,1.092q1.258.071,2.517.1c3.451.127,6.966.174,10.4.143.633,0,1.266-.016,1.884-.031,2.47-.048,4.876-.159,7.155-.317.491-.031.966-.08,1.456-.111.317-.015.617-.047.934-.079.38-.031.76-.079,1.14-.111,7.8-.824,13.2-2.454,12.664-5.209-.523-2.707-3.087-17.382-3.15-17.856-.775-4.924-1.345-9.2-1.757-12.887-.064-.586-.127-1.14-.174-1.694-.4-3.8-3.6-17.313,2.915-16.706,2.949.275,5.554,2.372,7.518,4.39.285.285.57.57.839.855,3.4,3.5,6.507,6.633,7.266,7.313a.569.569,0,0,0,.19.127,3.692,3.692,0,0,0,1.757.1c4.876-.554,16.448-5.6,15.957-10.242a39.385,39.385,0,0,0-2.77-5c-.206-.348-.443-.712-.7-1.092a99.321,99.321,0,0,0-6.681-9.04c-.253-.316-.522-.633-.792-.966-.854-1.029-1.788-2.089-2.786-3.2-.269-.316-.554-.633-.839-.949-.744-.823-1.52-1.662-2.327-2.532l-.57-.57q-3.135-3.3-7.029-6.981l-.743-.7q-3.088-2.874-6.681-5.968c-.317-.269-.633-.538-.949-.823-1.979-1.663-4.069-3.388-6.269-5.145a8.849,8.849,0,0,0-2.914-1.472,15.535,15.535,0,0,0-1.6-.412,35.217,35.217,0,0,0-10.4-.127,15.926,15.926,0,0,1-1.219,6.49,10.682,10.682,0,0,1-.792,1.519c-1.693,2.818-4.812,5.3-10.543,5.414a16.252,16.252,0,0,1-1.726-.031c-.174,0-.348-.016-.538-.031a14.576,14.576,0,0,1-8.121-2.786,8.345,8.345,0,0,1-.681-.571,10.135,10.135,0,0,1-2.976-6.285,12.788,12.788,0,0,1-.031-2.311c.031-.475.079-.744.079-.744s-20.3.048-25.013,11.6a138.323,138.323,0,0,0-4.86,17.176q-.332,1.449-.665,2.945c-.982,4.417-1.931,9.071-2.771,13.646-.206,1.093-.4,2.169-.586,3.261-.4,2.2-1.393,8.58-1.535,9.625-.19,1.377-.348,2.707-.49,3.957-.127,1.03-.222,2.011-.3,2.93C649.519,483.285,649.583,486.372,650.343,487.037Z" transform="translate(-649.676 -370.98)" fill="#0089ff"/>
      <path id="Path_99365" data-name="Path 99365" d="M732.361,374.522a.232.232,0,0,1,.22-.168c.553.032.842.581,1.373.741a2.57,2.57,0,0,0,2.04-.483c.152-.078.409.057.327.251a2.161,2.161,0,0,1-2.26,1.134C733.392,375.909,732.122,375.373,732.361,374.522Z" transform="translate(-676.984 -358.33)" fill="#112545"/>
      <path id="Path_99366" data-name="Path 99366" d="M716.365,374.649a7.471,7.471,0,0,0,1.66.845,2.162,2.162,0,0,0,2.006-.661c.174-.144.544-.014.434.252-.759,1.84-3.534,1.29-4.523-.013C715.737,374.8,716.118,374.528,716.365,374.649Z" transform="translate(-671.55 -358.418)" fill="#112545"/>
      <path id="Path_99367" data-name="Path 99367" d="M724.027,390.51c.88.14,1.6.661,2.524.724a7.794,7.794,0,0,0,2.589-.507.162.162,0,0,1,.157.269c-1.166,1.212-4.551,1.4-5.479-.214A.188.188,0,0,1,724.027,390.51Z" transform="translate(-674.162 -363.667)" fill="#e0855c"/>
      <rect id="Rectangle_6959" data-name="Rectangle 6959" width="10.697" height="19.656" rx="5.006" transform="matrix(0.995, 0.104, -0.104, 0.995, 60.099, 58.932)" fill="#eaeaea"/>
      <path id="Path_99368" data-name="Path 99368" d="M750.791,473.157s-2.512-1.667-5.848-3.406-10.7-5.479-12.212-7.792a6.762,6.762,0,0,1-.271-1.294,2.465,2.465,0,0,1-.024-.361,6.848,6.848,0,0,1,.339-2.582c.022-.07.048-.151.076-.23a6.684,6.684,0,0,1,1.213-2.1c.049-.058.1-.114.152-.171a9.7,9.7,0,0,1,1.7-1.551s7.4,3.993,10.215,4.362c0,0-3.793-3.542-3.393-5.117l.795-.779s4.518,3.345,6.667,4.65c5.226,3.175,6.444,9.5,6.444,9.5S755.194,473.025,750.791,473.157Z" transform="translate(-677.015 -384.027)" fill="#f5a784"/>
      <path id="Path_99369" data-name="Path 99369" d="M734.874,456.912l.152-.171a84.077,84.077,0,0,0,10.029,5.157.071.071,0,0,1-.04.132A27.14,27.14,0,0,1,734.874,456.912Z" transform="translate(-677.824 -385.55)" fill="#e0855c"/>
      <path id="Path_99370" data-name="Path 99370" d="M732.949,460.366c.022-.07.049-.151.076-.23a85.97,85.97,0,0,0,10.024,5.165c.066.032.035.145-.036.123A26.862,26.862,0,0,1,732.949,460.366Z" transform="translate(-677.188 -386.671)" fill="#e0855c"/>
      <path id="Path_99371" data-name="Path 99371" d="M732.466,464.7a2.209,2.209,0,0,1-.024-.361,90.142,90.142,0,0,0,9.5,4.845.064.064,0,0,1-.035.123A24.461,24.461,0,0,1,732.466,464.7Z" transform="translate(-677.021 -388.059)" fill="#e0855c"/>
      <path id="Path_99372" data-name="Path 99372" d="M765.445,471.756s21.246,8.7,33,12.618c0,0,11.334,10.362,0,15.233s-38.592-19.967-38.592-19.967Z" transform="translate(-686.077 -390.511)" fill="#f5a784"/>
      <path id="Path_99373" data-name="Path 99373" d="M663.882,582.033s.409,2.986.524,6.747.283,12.017,1.708,14.385a6.668,6.668,0,0,0,1.048.807,2.412,2.412,0,0,0,.314.178,6.847,6.847,0,0,0,2.473.818c.073.01.157.023.241.031a6.744,6.744,0,0,0,2.42-.178c.074-.019.147-.042.22-.063a9.693,9.693,0,0,0,2.137-.859s-.377-8.4.514-11.1c0,0,1.54,4.956,3.132,5.281l1.048-.377s-1.048-5.523-1.289-8.025c-.587-6.087-5.752-9.932-5.752-9.932S665.915,578.125,663.882,582.033Z" transform="translate(-654.369 -426.08)" fill="#f5a784"/>
      <path id="Path_99374" data-name="Path 99374" d="M676.563,611.73l.22-.063a84,84,0,0,1-.283-11.274.07.07,0,0,0-.136-.021A27.13,27.13,0,0,0,676.563,611.73Z" transform="translate(-658.322 -432.989)" fill="#e0855c"/>
      <path id="Path_99375" data-name="Path 99375" d="M672.6,612l.241.031a85.846,85.846,0,0,1-.294-11.273c0-.074-.115-.1-.125-.021A26.859,26.859,0,0,0,672.6,612Z" transform="translate(-657.017 -433.108)" fill="#e0855c"/>
      <path id="Path_99376" data-name="Path 99376" d="M668.484,610.881a2.226,2.226,0,0,0,.314.178,90.313,90.313,0,0,1-.23-10.666c.011-.073-.107-.094-.126-.021A24.448,24.448,0,0,0,668.484,610.881Z" transform="translate(-655.692 -432.989)" fill="#e0855c"/>
    </g>
    <g id="Group_31083" data-name="Group 31083" transform="translate(130.8 500.773)">
      <path id="Path_99377" data-name="Path 99377" d="M239.453,716.956A54.329,54.329,0,0,1,134.664,737.09c-.525-1.295-.994-2.613-1.418-3.964-.536-1.742-.994-3.529-1.362-5.349a53.983,53.983,0,0,1-1.083-10.821c0-1.183.033-2.356.112-3.517A54.323,54.323,0,0,1,182.8,662.686c.771-.044,1.541-.056,2.323-.056a53.837,53.837,0,0,1,11.7,1.274c.87.178,1.72.39,2.568.625A54.337,54.337,0,0,1,239.453,716.956Z" transform="translate(-130.8 -662.63)" fill="#f9b233"/>
      <g id="Group_31082" data-name="Group 31082" transform="translate(34.673 17.565)">
        <path id="Path_99378" data-name="Path 99378" d="M211.519,725.266c-5-2.709-20.914-4.841-14.182-13.939,2.168-2.93,5.337-3.649,8.8-3.162,2.73.383,9.529,5.714,11.851,1.844,2.577-4.3-4.446-8.04-6.878-9.256a16.328,16.328,0,0,0-8.39-1.541,20.061,20.061,0,0,0-15.061,8.277,14.315,14.315,0,0,0-2.368,6.136c-.936,7.127,4.571,12.8,10.537,15.665,5.457,2.622,14.886,2.169,16.877,9.261a8.149,8.149,0,0,1,.241,2.6c-.155,3.149-1.921,6.553-5,7.236-5.162,1.147-11.984-1.13-15.1-5.487-3.988-5.569-13.3-.214-9.271,5.419,9.407,13.141,35.88,14.919,38.2-5C222.662,735.743,218.022,728.793,211.519,725.266Z" transform="translate(-182.582 -692.266)" fill="#fff4bf"/>
        <path id="Path_99379" data-name="Path 99379" d="M213.944,691.058c-.579-1.4-1.319-2.22-2.262-2.2-3.027.075-4.1,6.045-4.108,8.814-.023,9.662.583,19.117.809,28.639.13,5.433-.037,10.868.036,16.3.073,5.5.016,10.883.99,16.337.365,2.04,2.579,5.233,4.379,2.15a6.532,6.532,0,0,0,.676-2.386c1.566-10.678.745-21.615,1-32.4C215.565,722.174,216.99,698.448,213.944,691.058Z" transform="translate(-190.839 -688.861)" fill="#fff4bf"/>
      </g>
      <path id="Path_99380" data-name="Path 99380" d="M196.829,663.9l-64.946,63.873a53.983,53.983,0,0,1-1.083-10.821c0-1.183.033-2.356.112-3.517L182.8,662.686c.771-.044,1.541-.056,2.323-.056A53.837,53.837,0,0,1,196.829,663.9Z" transform="translate(-130.8 -662.63)" fill="#ffcb6e"/>
      <path id="Path_99381" data-name="Path 99381" d="M161.9,732.047c-4.389,5.985-10.251,11.033-15.421,16.348-3.562,3.663-7.035,7.459-10.609,11.144-.525-1.295-.994-2.613-1.418-3.964,3.127-3.283,6.365-6.466,9.559-9.648,5.226-5.215,10.419-11.066,16.561-15.209C161.353,730.193,162.47,731.254,161.9,732.047Z" transform="translate(-132.007 -685.079)" fill="#ffcb6e"/>
      <path id="Path_99382" data-name="Path 99382" d="M189.436,766.856a45.589,45.589,0,1,1,45.589-45.59A45.641,45.641,0,0,1,189.436,766.856Zm0-90.062a44.473,44.473,0,1,0,44.473,44.473A44.523,44.523,0,0,0,189.436,676.793Z" transform="translate(-135.111 -666.941)" fill="#fff4bf"/>
    </g>
  </g>
</svg>
