<svg id="Group_31122" data-name="Group 31122" xmlns="http://www.w3.org/2000/svg" width="776.919" height="626.419" viewBox="0 0 776.919 626.419">
  <circle id="Ellipse_791" data-name="Ellipse 791" cx="89.203" cy="89.203" r="89.203" transform="translate(132.121 243.006)" fill="#e6e6e6"/>
  <path id="Path_99425" data-name="Path 99425" d="M391.006,600.059l21.943,13.6V521.745l-24.6-15.241a9.541,9.541,0,0,1-4.163-5.542h0a9.541,9.541,0,0,1,6.816,1.261l21.943,13.6v-35.64a84.327,84.327,0,0,1,2.518-20.452,84.327,84.327,0,0,1,2.518,20.452v58.172l32.372-20.06a15.864,15.864,0,0,1,8.616-2.377,15.864,15.864,0,0,1-5.964,6.657l-35.024,21.7v219.2h-5.036V619.581l-24.6-15.241a9.541,9.541,0,0,1-4.163-5.542h0A9.541,9.541,0,0,1,391.006,600.059Z" transform="translate(-193.783 -137.591)" fill="#ccc"/>
  <circle id="Ellipse_792" data-name="Ellipse 792" cx="89.203" cy="89.203" r="89.203" transform="translate(0 250.58)" fill="#e6e6e6"/>
  <path id="Path_99426" data-name="Path 99426" d="M294.079,608.312l-21.943,13.6V530l24.6-15.241a9.541,9.541,0,0,0,4.163-5.542h0a9.541,9.541,0,0,0-6.816,1.261l-21.943,13.6v-35.64a84.33,84.33,0,0,0-2.518-20.452,84.324,84.324,0,0,0-2.518,20.452v58.172l-32.371-20.06a15.864,15.864,0,0,0-8.616-2.377,15.864,15.864,0,0,0,5.964,6.657l35.024,21.7V762.8h5.036V627.833l24.6-15.241a9.541,9.541,0,0,0,4.163-5.542h0a9.541,9.541,0,0,0-6.815,1.261Z" transform="translate(-180.776 -138.27)" fill="#ccc"/>
  <circle id="Ellipse_793" data-name="Ellipse 793" cx="153.584" cy="153.584" r="153.584" transform="translate(0.416 0)" fill="#e6e6e6"/>
  <path id="Path_99427" data-name="Path 99427" d="M379.243,498.782l-37.78,23.411V363.945L383.81,337.7a16.426,16.426,0,0,0,7.168-9.542h0a16.427,16.427,0,0,0-11.735,2.172l-37.779,23.411V292.382a145.191,145.191,0,0,0-4.335-35.214,145.187,145.187,0,0,0-4.335,35.214V392.539L277.058,358a27.314,27.314,0,0,0-14.835-4.093,27.315,27.315,0,0,0,10.268,11.462l60.3,37.367v343.05h8.67v-213.4l42.346-26.241a16.426,16.426,0,0,0,7.168-9.542h0A16.427,16.427,0,0,0,379.243,498.782Z" transform="translate(-183.747 -120.924)" fill="#ccc"/>
  <rect id="Rectangle_6963" data-name="Rectangle 6963" width="746.104" height="1.835" transform="translate(30.815 624.583)" fill="#3f3d56"/>
  <path id="Path_99428" data-name="Path 99428" d="M791.874,257.118H789.79V152.535a35.782,35.782,0,0,0-35.782-35.782H521.1a35.782,35.782,0,0,0-35.782,35.782v45.822h-.789a2.1,2.1,0,0,0-2.1,2.1v20.493a2.1,2.1,0,0,0,2.1,2.1h.789v20.511h-.973a2.1,2.1,0,0,0-2.1,2.1v38.782a2.1,2.1,0,0,0,2.1,2.1h.973v15.042h-.881a2.1,2.1,0,0,0-2.1,2.1v39.15a2.1,2.1,0,0,0,2.1,2.1h.881V699.76A35.782,35.782,0,0,0,521.1,735.542H754.009a35.782,35.782,0,0,0,35.782-35.782V332.123h2.083a2.1,2.1,0,0,0,2.1-2.1v-70.8a2.1,2.1,0,0,0-2.1-2.1Z" transform="translate(-201.851 -109.37)" fill="#3f3d56"/>
  <path id="Path_99429" data-name="Path 99429" d="M658.4,145.936H622.985a4.015,4.015,0,0,1-4.011-4.01v-1.533a4.015,4.015,0,0,1,4.011-4.01H658.4a4.015,4.015,0,0,1,4.011,4.01v1.533A4.015,4.015,0,0,1,658.4,145.936Z" transform="translate(-213.102 -110.985)" fill="#fff"/>
  <circle id="Ellipse_794" data-name="Ellipse 794" cx="4.901" cy="4.901" r="4.901" transform="translate(455.274 25.278)" fill="#fff"/>
  <path id="Path_99430" data-name="Path 99430" d="M748.766,134.313H713.893v4.194a19.914,19.914,0,0,1-19.914,19.914H582.88a19.905,19.905,0,0,1-19.914-19.9v-4.212h-32.7A24.182,24.182,0,0,0,506.085,158.5h0V696.681a24.182,24.182,0,0,0,24.182,24.182h218.5a24.173,24.173,0,0,0,24.173-24.173v-538.2a24.173,24.173,0,0,0-24.164-24.182Z" transform="translate(-203.813 -110.815)" fill="#fff"/>
  <path id="Path_99431" data-name="Path 99431" d="M691.82,697.766H598.212a25.237,25.237,0,1,1,0-50.474H691.82a25.237,25.237,0,0,1,0,50.474Z" transform="translate(-209.317 -153.024)" fill="#0089ff"/>
  <path id="Path_99432" data-name="Path 99432" d="M726.718,474.84H559.693a8.718,8.718,0,0,1,0-17.437H726.718a8.718,8.718,0,0,1,0,17.437Z" transform="translate(-207.507 -137.4)" fill="#e6e6e6" style="isolation: isolate"/>
  <path id="Path_99433" data-name="Path 99433" d="M726.718,502.84H559.693a8.718,8.718,0,1,1,0-17.437H726.718a8.718,8.718,0,0,1,0,17.437Z" transform="translate(-207.507 -139.704)" fill="#e6e6e6" style="isolation: isolate"/>
  <path id="Path_99434" data-name="Path 99434" d="M726.718,530.84H559.693a8.718,8.718,0,0,1,0-17.437H726.718a8.718,8.718,0,0,1,0,17.437Z" transform="translate(-207.507 -142.008)" fill="#e6e6e6" style="isolation: isolate"/>
  <path id="Path_99435" data-name="Path 99435" d="M726.718,558.84H559.693a8.718,8.718,0,0,1,0-17.437H726.718a8.718,8.718,0,0,1,0,17.437Z" transform="translate(-207.507 -144.312)" fill="#e6e6e6" style="isolation: isolate"/>
  <path id="Path_99436" data-name="Path 99436" d="M612.921,586.84H559.693a8.718,8.718,0,0,1,0-17.437h53.228a8.718,8.718,0,1,1,0,17.437Z" transform="translate(-207.507 -146.615)" fill="#e6e6e6" style="isolation: isolate"/>
  <path id="Path_99437" data-name="Path 99437" d="M750.642,382.647H531.334a7.321,7.321,0,0,1-7.313-7.312V212.567a7.321,7.321,0,0,1,7.313-7.312H750.642a7.32,7.32,0,0,1,7.312,7.312V375.335a7.32,7.32,0,0,1-7.312,7.312Z" transform="translate(-205.289 -116.652)" fill="#e6e6e6" style="isolation: isolate"/>
  <g id="Group_31121" data-name="Group 31121" transform="translate(584.161 215.732)" opacity="0.1">
    <path id="Path_99438" data-name="Path 99438" d="M813.286,347.582q0-1.89,0-3.8a28.69,28.69,0,0,0,0,2.946C813.276,347.013,813.286,347.3,813.286,347.582Z" transform="translate(-813.248 -343.783)"/>
  </g>
  <g id="Group_31133" data-name="Group 31133" transform="translate(0 -91.964)">
    <circle id="Ellipse_795" data-name="Ellipse 795" cx="29.647" cy="29.647" r="29.647" transform="translate(607.607 247.08)" fill="#ffb8b8"/>
    <path id="Path_99439" data-name="Path 99439" d="M924.532,619.1a10.731,10.731,0,0,0-.729-16.439l-4.042-35.908L897.248,572.9l10.961,32.319A10.789,10.789,0,0,0,924.532,619.1Z" transform="translate(-210.171 -101.972)" fill="#ffb8b8"/>
    <path id="Path_99440" data-name="Path 99440" d="M762.806,672.155l12.427-8.037-25.088-51.753-18.339,11.863Z" transform="translate(-31.996 26.782)" fill="#ffb8b8"/>
    <path id="Path_99441" data-name="Path 99441" d="M0,0H46.51V17.97H17.3A17.3,17.3,0,0,1,0,.672Z" transform="translate(774.665 686.931) rotate(147.104)" fill="#2f2e41"/>
    <path id="Path_99442" data-name="Path 99442" d="M661.851,676.5h14.8l7.043-57.08H661.851Z" transform="translate(-41.083 27.698)" fill="#ffb8b8"/>
    <path id="Path_99443" data-name="Path 99443" d="M0,0H46.51V17.97H17.3A17.3,17.3,0,0,1,0,.672Z" transform="translate(664.107 717.937) rotate(180)" fill="#2f2e41"/>
    <path id="Path_99444" data-name="Path 99444" d="M891.18,452.418c-1.968,6.408,5.007,13.384,7.26,19.682s5.282,12.359,6.5,18.95c.833,4.531,19.711,104.628,18.8,110.723a23.49,23.49,0,0,0-17.467,1.6,51.916,51.916,0,0,1-6.637-21.6,112.925,112.925,0,0,1,.128-13.521c.586-12.734-4.934-25.486-5.117-38.229a72.024,72.024,0,0,0-1.044-13.182c-.6-2.994-.549-8.6-1.2-11.58-1.034-4.742,3.415-6.93,3.167-11.791l-1.355-26.548C893.935,462.277,889.266,456.574,891.18,452.418Z" transform="translate(-211.019 -116.824)" fill="#2f2e41"/>
    <path id="Path_99445" data-name="Path 99445" d="M834.674,552.765c-4.758,7.423-14.774,9.029-21.781,14.346C802.188,575.283,829.5,758.888,838.516,791.5c23.791-3.569,24.624-3.557,27.359-4.758s5.21-94.46,10.991-113.683c10.819,10.2,44.87,97.827,52.055,117.252,28.549-7.137,0,0,36.876-9.516-.309-6.733-54.493-226.119-56.468-243.4C884.54,542.333,859.393,547.84,834.674,552.765Z" transform="translate(-221.447 -105.786)" fill="#2f2e41"/>
    <path id="Path_99446" data-name="Path 99446" d="M829.238,428.984c-2.939,8.706,1.062,42.577,1.355,50.194a170.7,170.7,0,0,1,0,20.762c-1.016,11.974-4.577,24.03-2.188,35.8,1.565,7.79,4.348,15.032,5,22.959.439,5.493.3,11.077,2.041,16.286,6.408-2.746,63.221-12.187,67.4-17.677-2.856-13.8-.092-28.04-1.987-42-1.1-8.047-3.817-15.792-5.1-23.8-1.584-9.887-.915-20.14-3.8-29.743a85.631,85.631,0,0,0-6.069-14.07c-2.482-5.118-5.6-9.321-6.661-9.319C876.524,438.523,829.41,428.208,829.238,428.984Z" transform="translate(-219.219 -119.874)" fill="#0089ff"/>
    <path id="Path_99447" data-name="Path 99447" d="M823.9,636.246s9.85-19.655,10.344-30.9c.174-4.037,11.233-20.1,16.213-23.747,11.809-8.651,20.515-66.635,16.524-80.706-6.9-24.323-18.529-47-30.329-69.354a5.054,5.054,0,0,0-1.648-2.1c-2.4-1.492-5,1.446-6.637,3.744-5.557,7.79-14.711,11.956-23.1,16.56s-16.963,10.738-19.5,19.957c-1.7,6.188-.375,12.752.915,19.023s5.8,11.251,9.219,16.533c3.958,5.83,14.24,31.682,14.162,34.75.2,18.968.394,38-1.9,56.84-1.291,10.647-2.426,32.041-2.426,32.041Z" transform="translate(-224.756 -119.861)" fill="#2f2e41"/>
    <path id="Path_99448" data-name="Path 99448" d="M902.727,614.936c-18.135-41.277-17.119-88.249-28.644-131.824-3.424-12.935-8-25.935-7.177-39.291.146-2.389.65-5.072,2.646-6.408,1.776-1.19,4.193-.87,6.143,0s3.616,2.289,5.493,3.259c3.03,1.547,6.554,1.987,9.466,3.735,4.321,2.6,6.527,7.543,8.459,12.194,4.129,9.933,8.239,20.14,8.569,30.905.7,20.909-8.578,41-3.744,61.335a121.825,121.825,0,0,0,3.735,11.846,360.163,360.163,0,0,1,11.9,42.852C920.111,606.02,903.486,616.676,902.727,614.936Z" transform="translate(-214.125 -118.874)" fill="#2f2e41"/>
    <path id="Path_99449" data-name="Path 99449" d="M853.41,590.153a10.731,10.731,0,0,0-10.831-12.387L817,552.237l-13.751,18.855L831.992,589.5a10.789,10.789,0,0,0,21.418.656Z" transform="translate(-222.381 -103.858)" fill="#ffb8b8"/>
    <path id="Path_99450" data-name="Path 99450" d="M775.528,544.648c.421,3.836,32.64,44.288,50.148,57.49-1.016-5.209,12.706-22.2,17.146-24.854-11.1-10.467-34.277-34.742-35.043-36.069-2.508-4.843,0-10.628,2.188-15.636,6.893-15.919,10.143-33.981,5.722-50.761-1.666-6.3-4.577-12.606-9.878-16.478-2.316-1.684-5.447-2.838-8.019-1.556a8.909,8.909,0,0,0-2.746,2.463C786.834,469.233,775.217,541.8,775.528,544.648Z" transform="translate(-225.983 -116.328)" fill="#2f2e41"/>
    <path id="Path_99451" data-name="Path 99451" d="M845.289,431.839c1.731-7.344-7.019-23.148-5.288-30.492,1.172-4.974,12.868-1.593,15.6-5.913s7.3-7.82,12.411-7.877c5.873-.066,11.652,4.291,17.216,2.408,5.625-1.9,7.423-9.607,4.936-15s-7.845-8.83-13.138-11.522c-9.014-4.586-19.509-7.934-29.157-4.9-5.832,1.834-10.708,5.808-15.427,9.695-4.3,3.543-8.675,7.166-11.682,11.858-5.891,9.191-5.535,21.576-.5,31.263s14.207,16.8,24.314,20.923" transform="translate(-220.672 -129.169)" fill="#2f2e41"/>
  </g>
</svg>
