<svg id="Group_32368" data-name="Group 32368" xmlns="http://www.w3.org/2000/svg" xmlns:xlink="http://www.w3.org/1999/xlink" width="1234.043" height="233.787" viewBox="0 0 1234.043 233.787">
  <defs>
    <linearGradient id="linear-gradient" x1="0.5" y1="-0.2" x2="0.5" y2="0.817" gradientUnits="objectBoundingBox">
      <stop offset="0.001" stop-color="#0043ff"/>
      <stop offset="0.536" stop-color="#0371ff"/>
      <stop offset="1" stop-color="#0020d3"/>
    </linearGradient>
    <linearGradient id="linear-gradient-2" x1="0.5" y1="-0.21" x2="0.5" y2="0.806" xlink:href="#linear-gradient"/>
    <linearGradient id="linear-gradient-3" x1="0.5" y1="-0.442" x2="0.5" y2="1.974" xlink:href="#linear-gradient"/>
    <linearGradient id="linear-gradient-4" x1="0.5" y1="-4.052" x2="0.5" y2="1.994" xlink:href="#linear-gradient"/>
    <linearGradient id="linear-gradient-5" x1="0.5" y1="-5.404" x2="0.5" y2="0.642" xlink:href="#linear-gradient"/>
    <linearGradient id="linear-gradient-6" x1="0.5" y1="-1.076" x2="0.5" y2="1.383" xlink:href="#linear-gradient"/>
    <linearGradient id="linear-gradient-7" x1="0.5" y1="-1.255" x2="0.5" y2="4.89" xlink:href="#linear-gradient"/>
    <linearGradient id="linear-gradient-8" x1="0.5" y1="-5.41" x2="0.5" y2="0.569" xlink:href="#linear-gradient"/>
    <linearGradient id="linear-gradient-9" x1="0.5" y1="-0.012" x2="0.5" y2="2.747" xlink:href="#linear-gradient"/>
    <linearGradient id="linear-gradient-10" x1="0.5" y1="-1.945" x2="0.5" y2="4.2" xlink:href="#linear-gradient"/>
    <linearGradient id="linear-gradient-11" x1="0.5" y1="-1.85" x2="0.5" y2="4.489" xlink:href="#linear-gradient"/>
    <linearGradient id="linear-gradient-12" x1="0.5" y1="-0.013" x2="0.5" y2="2.96" xlink:href="#linear-gradient"/>
    <linearGradient id="linear-gradient-13" x1="0.5" y1="-0.949" x2="0.5" y2="8.14" xlink:href="#linear-gradient"/>
    <linearGradient id="linear-gradient-14" x1="0.5" y1="-0.6" x2="0.5" y2="2.035" xlink:href="#linear-gradient"/>
    <linearGradient id="linear-gradient-15" x1="0.5" y1="-3.298" x2="0.5" y2="2.595" xlink:href="#linear-gradient"/>
    <linearGradient id="linear-gradient-16" x1="0.5" y1="-3.336" x2="0.5" y2="2.71" xlink:href="#linear-gradient"/>
    <linearGradient id="linear-gradient-17" x1="0.5" y1="-0.616" x2="0.5" y2="2.091" xlink:href="#linear-gradient"/>
    <linearGradient id="linear-gradient-18" x1="0.5" y1="-1.066" x2="0.5" y2="8.005" xlink:href="#linear-gradient"/>
    <linearGradient id="linear-gradient-19" x1="0.5" y1="-4.779" x2="0.5" y2="1.268" xlink:href="#linear-gradient"/>
    <linearGradient id="linear-gradient-20" x1="0.5" y1="-1.282" x2="0.5" y2="1.449" xlink:href="#linear-gradient"/>
    <linearGradient id="linear-gradient-21" x1="0.5" y1="-3.141" x2="0.5" y2="5.837" xlink:href="#linear-gradient"/>
    <linearGradient id="linear-gradient-22" x1="0.5" y1="-2.13" x2="0.5" y2="6.94" xlink:href="#linear-gradient"/>
    <linearGradient id="linear-gradient-23" x1="0.5" y1="-1.433" x2="0.5" y2="5.046" xlink:href="#linear-gradient"/>
    <linearGradient id="linear-gradient-24" x1="0.5" y1="-3.143" x2="0.5" y2="5.866" xlink:href="#linear-gradient"/>
    <linearGradient id="linear-gradient-25" x1="0.5" y1="-1.253" x2="0.5" y2="1.415" xlink:href="#linear-gradient"/>
    <linearGradient id="linear-gradient-26" x1="0.5" y1="-4.758" x2="0.5" y2="1.221" xlink:href="#linear-gradient"/>
    <linearGradient id="linear-gradient-27" x1="0.5" y1="-1.436" x2="0.5" y2="0.629" xlink:href="#linear-gradient"/>
    <linearGradient id="linear-gradient-28" x1="0.5" y1="-5.249" x2="0.5" y2="3.761" xlink:href="#linear-gradient"/>
    <linearGradient id="linear-gradient-29" x1="0.5" y1="-3.406" x2="0.5" y2="3.926" xlink:href="#linear-gradient"/>
    <linearGradient id="linear-gradient-30" x1="0.5" y1="-1.931" x2="0.5" y2="4.115" xlink:href="#linear-gradient"/>
    <linearGradient id="linear-gradient-31" x1="0.5" y1="-1.872" x2="0.5" y2="4.107" xlink:href="#linear-gradient"/>
    <linearGradient id="linear-gradient-32" x1="0.5" y1="-3.197" x2="0.5" y2="4.134" xlink:href="#linear-gradient"/>
    <linearGradient id="linear-gradient-33" x1="0.5" y1="-5.245" x2="0.5" y2="3.765" xlink:href="#linear-gradient"/>
    <linearGradient id="linear-gradient-34" x1="0.5" y1="-1.403" x2="0.5" y2="0.615" xlink:href="#linear-gradient"/>
  </defs>
  <g id="Group_32366" data-name="Group 32366" transform="translate(326.043 33.425)">
    <text id="SUPERFX" transform="translate(448.604 172.362)" fill="#231f20" font-size="69" font-family="Poppins-Regular, Poppins"><tspan x="-389.402" y="0" letter-spacing="1.2em">SUPERF</tspan><tspan y="0">X</tspan></text>
    <text id="WALL_STREET" data-name="WALL STREET" transform="translate(0 96)" fill="#0c0c0c" font-size="139" font-family="Poppins-Medium, Poppins"><tspan x="0" y="0">WALL STREET</tspan></text>
  </g>
  <g id="Group_32367" data-name="Group 32367" transform="translate(0 0)">
    <path id="Path_102606" data-name="Path 102606" d="M514.126,885.575v171.861l-18.962,10.781V874.547Z" transform="translate(-495.164 -836.679)" fill="url(#linear-gradient)"/>
    <path id="Path_102607" data-name="Path 102607" d="M718.807,876.184v193.993l-18.962-11.028V886.966Z" transform="translate(-459.087 -836.391)" fill="url(#linear-gradient-2)"/>
    <path id="Path_102608" data-name="Path 102608" d="M549.539,872.267v70.795l-10.459,5.946-8.5,4.835V882.03l4.372-2.251Z" transform="translate(-488.922 -837.081)" fill="url(#linear-gradient-3)"/>
    <path id="Path_102609" data-name="Path 102609" d="M530.577,964.659l18.962-10.781V975.69l-18.962,10.781Z" transform="translate(-488.922 -822.697)" fill="url(#linear-gradient-4)"/>
    <path id="Path_102610" data-name="Path 102610" d="M530.577,1002.134l18.962-10.781v21.812l-18.962,10.781Z" transform="translate(-488.922 -816.091)" fill="url(#linear-gradient-5)"/>
    <path id="Path_102611" data-name="Path 102611" d="M684.593,926.242v68.817l-18.962-11.025V914.9l8.9,5.326Z" transform="translate(-465.118 -829.567)" fill="url(#linear-gradient-6)"/>
    <path id="Path_102612" data-name="Path 102612" d="M676.618,881.853l-10.987-6.044V897.45l11.142,6.127,7.821,4.3V886.241Z" transform="translate(-465.118 -836.457)" fill="url(#linear-gradient-7)"/>
    <path id="Path_102613" data-name="Path 102613" d="M665.631,993.19l18.962,11.028v21.934l-18.962-11.028Z" transform="translate(-465.118 -815.767)" fill="url(#linear-gradient-8)"/>
    <path id="Path_102614" data-name="Path 102614" d="M698.359,892.138v21.639l-7.821-4.3L679.4,903.347l-8.357-4.6-22.53-12.393-19.5-10.725-21.449-11.8-20.03-11.017,20.322-10.462,20.03,11.017,20.474,11.261,19.5,10.727,11.54,6.347,10.987,6.044Z" transform="translate(-478.883 -842.353)" fill="url(#linear-gradient-9)"/>
    <path id="Path_102615" data-name="Path 102615" d="M718.807,905.058V926.7l-8.66-4.765-10.3-5.667V894.629l10.148,5.583h0Z" transform="translate(-459.087 -833.14)" fill="url(#linear-gradient-10)"/>
    <path id="Path_102616" data-name="Path 102616" d="M514.126,890.5v21.327l-14.438,7.433-4.524,2.327V900.258l5.077-2.614Z" transform="translate(-495.164 -833.868)" fill="url(#linear-gradient-11)"/>
    <path id="Path_102617" data-name="Path 102617" d="M637.923,853.371,617.6,863.832,598.82,873.5l-19.854,10.221L554.4,896.364l-4.863,2.5-15.146,7.8-3.817,1.967V887.3l4.372-2.251,14.59-7.512,10.259-5.28,19.856-10.221,17.917-9.224,20.322-10.462Z" transform="translate(-488.922 -842.353)" fill="url(#linear-gradient-12)"/>
    <path id="Path_102618" data-name="Path 102618" d="M575.275,859.089l19.166,11.461-19.854,10.221L555.419,869.31Z" transform="translate(-484.543 -839.404)" fill="url(#linear-gradient-13)"/>
    <path id="Path_102619" data-name="Path 102619" d="M697.8,932.441v22.094l-10.3-6.16-8.663-5.179-10.037-6L649.712,925.78l-18.7-11.182-21.6-12.919-18.7-11.18,18.941-10.771,18.7,11.182,21.6,12.919,18.7,11.182,10.183,6.087,8.9,5.326Z" transform="translate(-478.322 -835.766)" fill="url(#linear-gradient-14)"/>
    <path id="Path_102620" data-name="Path 102620" d="M718.807,946.7V968.8l-18.962-11.339v-22.1Z" transform="translate(-459.087 -825.96)" fill="url(#linear-gradient-15)"/>
    <path id="Path_102621" data-name="Path 102621" d="M495.164,944.826l18.962-10.781v21.812l-18.962,10.781Z" transform="translate(-495.164 -826.192)" fill="url(#linear-gradient-16)"/>
    <path id="Path_102622" data-name="Path 102622" d="M638.952,890.911l-18.941,10.768-22.823,12.978L578.116,925.5l-19.962,11.348-8.614,4.9-10.459,5.946-8.5,4.835V930.716l8.612-4.9,10.351-5.886,9.611-5.464,19.071-10.844L601.315,890.5l18.941-10.771Z" transform="translate(-488.922 -835.766)" fill="url(#linear-gradient-17)"/>
    <path id="Path_102623" data-name="Path 102623" d="M661.641,872.021l-19.347,11-19.5-10.725,19.347-11Z" transform="translate(-472.668 -839.015)" fill="url(#linear-gradient-18)"/>
    <path id="Path_102624" data-name="Path 102624" d="M495.164,984.794l18.962-10.781v21.812l-18.962,10.781Z" transform="translate(-495.164 -819.148)" fill="url(#linear-gradient-19)"/>
    <path id="Path_102625" data-name="Path 102625" d="M619.1,920.254l18.965,11.031L619,942.129l-19.962,11.348L579.96,964.32l-30.421,17.3L530.577,992.4V970.586L549.539,959.8,561,953.292l19.073-10.844,19.959-11.35L619.1,920.254Z" transform="translate(-488.922 -828.623)" fill="url(#linear-gradient-20)"/>
    <path id="Path_102626" data-name="Path 102626" d="M662.614,911.4l-18.941,10.768-18.7-11.182,18.941-10.768Z" transform="translate(-472.283 -832.154)" fill="url(#linear-gradient-21)"/>
    <path id="Path_102627" data-name="Path 102627" d="M677.87,880.947l-10.987,6.247-8.357,4.754,8.357,4.6,11.142,6.127,7.821-4.448V885.335Z" transform="translate(-466.37 -835.551)" fill="url(#linear-gradient-22)"/>
    <path id="Path_102628" data-name="Path 102628" d="M549.539,887.138l4.863,2.828-4.863,2.5v16.6l-15.146-8.807-3.817-2.219V880.9l4.372-2.251Z" transform="translate(-488.922 -835.955)" fill="url(#linear-gradient-23)"/>
    <path id="Path_102629" data-name="Path 102629" d="M573.939,900.046l18.968,11.031L573.834,921.92l-18.965-11.031Z" transform="translate(-484.64 -832.185)" fill="url(#linear-gradient-24)"/>
    <path id="Path_102630" data-name="Path 102630" d="M697.991,972.181v21.934L679.028,983.09l-32.114-18.675-18.965-11.028-19.361-11.258L589.621,931.1l19.071-10.844h0l18.965,11.031,19.361,11.258,18.968,11.028,13.041,7.585Z" transform="translate(-478.515 -828.623)" fill="url(#linear-gradient-25)"/>
    <path id="Path_102631" data-name="Path 102631" d="M718.807,985.948v21.934l-18.962-11.028V974.923Z" transform="translate(-459.087 -818.987)" fill="url(#linear-gradient-26)"/>
    <path id="Path_102632" data-name="Path 102632" d="M624.636,958.069,643.6,969.1,624.53,979.944l-68.749,39.087-18.962,10.781-22.693,12.9L495.164,1053.5v-21.812l18.962-10.781,22.693-12.9,18.962-10.781,49.782-28.305h0Z" transform="translate(-495.164 -821.958)" fill="url(#linear-gradient-27)"/>
    <path id="Path_102633" data-name="Path 102633" d="M641.276,939.2l18.968,11.028-19.073,10.844-18.965-11.028Z" transform="translate(-472.772 -825.283)" fill="url(#linear-gradient-28)"/>
    <path id="Path_102634" data-name="Path 102634" d="M686.1,925.444v10.077l-10.3,5.857-8.663,4.925V936.2l-10.037-6,10.037-5.7,8.9-5.063Z" transform="translate(-466.622 -828.769)" fill="url(#linear-gradient-29)"/>
    <path id="Path_102635" data-name="Path 102635" d="M718.807,895.115v21.812l-8.66,4.922-10.3,5.859V905.894l10.148-5.767h0Z" transform="translate(-459.087 -833.054)" fill="url(#linear-gradient-30)"/>
    <path id="Path_102636" data-name="Path 102636" d="M514.126,905.09v21.934l-14.438-8.395L495.164,916V894.065l5.077,2.95Z" transform="translate(-495.164 -833.239)" fill="url(#linear-gradient-31)"/>
    <path id="Path_102637" data-name="Path 102637" d="M558.153,930.693l-8.614,4.9-10.459,5.946-8.5-4.944V914.656l8.612,5.009,10.351,6.019Z" transform="translate(-488.922 -829.61)" fill="url(#linear-gradient-32)"/>
    <path id="Path_102638" data-name="Path 102638" d="M594.475,950.151,575.4,960.994l-18.965-11.028,19.073-10.844Z" transform="translate(-484.364 -825.297)" fill="url(#linear-gradient-33)"/>
    <path id="Path_102639" data-name="Path 102639" d="M738.34,1033.808v21.937l-18.962-11.028L698.1,1032.342l-18.962-11.028-71.147-41.37-18.965-11.031,19.071-10.844L627.06,969.1l52.073,30.28,18.962,11.028,21.281,12.374Z" transform="translate(-478.621 -821.958)" fill="url(#linear-gradient-34)"/>
  </g>
</svg>
