<svg id="master-card-logo" xmlns="http://www.w3.org/2000/svg" width="72.624" height="43.484" viewBox="0 0 72.624 43.484">
  <g id="Group_640" data-name="Group 640" transform="translate(0 0)">
    <g id="Group_639" data-name="Group 639">
      <path id="Path_1327" data-name="Path 1327" d="M50.886,9.716a21.644,21.644,0,0,0-14.578,5.621A21.657,21.657,0,0,0,21.737,9.72H21.6A21.736,21.736,0,1,0,36.306,47.577,21.5,21.5,0,0,1,34.083,45.2h4.488a21.734,21.734,0,0,1-2.207,2.329h0c-.018.02-.037.031-.055.048A21.732,21.732,0,0,0,72.623,31.457v-.01A21.731,21.731,0,0,0,50.886,9.716ZM34.332,17.581h4.131a22.652,22.652,0,0,1,1.687,2.327H32.78C33.255,19.132,33.777,18.333,34.332,17.581ZM31.5,22.191H41.4a23.221,23.221,0,0,1,.937,2.329H30.322C30.442,24.3,30.862,23.389,31.5,22.191ZM8.873,36.994l1.318-8.311L7.218,36.994H5.624l-.207-8.311L4.008,36.994H1.776L3.626,25.972H7l.118,6.763L9.4,25.972h3.664L11.241,36.994Zm7.9-.018.076-.88a3,3,0,0,1-2.374,1.063,2.2,2.2,0,0,1-2.234-2.494c0-2.578,2.1-3.433,4.1-3.433.315,0,.994.057.994.057a1.5,1.5,0,0,0,.076-.583c0-.7-.63-.8-1.492-.8a7.326,7.326,0,0,0-2.522.406l.336-1.994a8,8,0,0,1,2.8-.51c.82,0,3.179.087,3.179,2.791l-.909,6.373Zm8.612-2.807c0,3.076-2.98,2.944-3.5,2.944a7.441,7.441,0,0,1-2.6-.283l.309-2.024a7.567,7.567,0,0,0,2.056.352c.624,0,1.434-.061,1.434-.807,0-1.116-2.9-.849-2.9-3.5,0-2.338,1.737-3.022,3.449-3.022a10.8,10.8,0,0,1,2.135.181l-.292,2.042s-1.255-.1-1.581-.1c-.823,0-1.272.18-1.272.756C22.623,31.864,25.381,31.3,25.381,34.169Zm3.578.807c.205,0,.438-.07.6-.07l-.289,1.966a5.965,5.965,0,0,1-1.735.3,1.717,1.717,0,0,1-1.845-1.962c0-.918,1.315-8.48,1.366-8.53h2.314l-.235,1.353h1.155l-.3,2.179H28.766l-.651,4.014C28.065,34.55,28.154,34.976,28.959,34.976Zm5.09-7.194a3.1,3.1,0,0,1,3.3,3.385,16.538,16.538,0,0,1-.306,2.11h-4.7s-.435,1.852,2.05,1.852a7.207,7.207,0,0,0,2.458-.57l-.408,2.23A5.87,5.87,0,0,1,34,37.169c-1.84,0-4-.778-4-4.047C30,30.289,31.721,27.782,34.049,27.782Zm6.129,15.181H32.467a21.5,21.5,0,0,1-1.284-2.327H41.445A22.321,22.321,0,0,1,40.178,42.962ZM39.66,37.01H37.285l1.444-8.971h2.155l-.207,1.3s.768-1.414,1.8-1.414a2.479,2.479,0,0,1,.447.03,8.9,8.9,0,0,0-.861,2.684C40.46,30.07,40.337,33.179,39.66,37.01Zm9.05-.139a10.679,10.679,0,0,1-2.024.318c-2.762,0-4.164-1.906-4.164-4.793,0-4.353,2.6-6.672,5.27-6.672a8.286,8.286,0,0,1,2.606.567l-.378,2.452a4.121,4.121,0,0,0-2.123-.661c-1.575,0-2.987,1.5-2.987,4.233,0,1.345.658,2.6,2.3,2.6a5.547,5.547,0,0,0,1.914-.568Zm5.571.109.078-.886a3.009,3.009,0,0,1-2.374,1.063,2.2,2.2,0,0,1-2.234-2.494c0-2.578,2.1-3.433,4.1-3.433.315,0,1,.057,1,.057a1.459,1.459,0,0,0,.078-.582c0-.7-.63-.8-1.494-.8a7.311,7.311,0,0,0-2.521.406l.336-1.994a8.006,8.006,0,0,1,2.8-.51c.819,0,3.179.087,3.178,2.791l-.909,6.373S54.282,36.98,54.282,36.98Zm4.809.03H56.715L58.16,28.04h2.156l-.207,1.3s.769-1.414,1.806-1.414a2.449,2.449,0,0,1,.445.03A8.9,8.9,0,0,0,61.5,30.64C59.89,30.07,59.767,33.179,59.091,37.01Zm7.092-.024.1-.826a2.891,2.891,0,0,1-2.156.969c-1.924,0-2.867-1.858-2.867-3.757,0-2.936,1.767-5.5,3.887-5.5a3.068,3.068,0,0,1,2.236,1.207l.5-3.1,2.32,0-1.77,11Zm4.577-.31a.692.692,0,0,1-.259.262.7.7,0,0,1-.7,0,.711.711,0,0,1-.352-.61.714.714,0,0,1,.093-.351.665.665,0,0,1,.262-.261.712.712,0,0,1,.343-.093.7.7,0,0,1,.345.093.641.641,0,0,1,.264.261.7.7,0,0,1,0,.7Z" transform="translate(0 -9.716)" fill="#b5b5b5"/>
    </g>
  </g>
  <g id="Group_642" data-name="Group 642" transform="translate(70.26 33.543)">
    <g id="Group_641" data-name="Group 641">
      <path id="Path_1328" data-name="Path 1328" d="M47.165,32.133a.213.213,0,0,0-.052-.036.366.366,0,0,0-.12-.013h-.141v.225H47a.211.211,0,0,0,.144-.031.1.1,0,0,0,.037-.082A.113.113,0,0,0,47.165,32.133Z" transform="translate(-46.852 -32.084)" fill="#b5b5b5"/>
    </g>
  </g>
  <g id="Group_644" data-name="Group 644" transform="translate(69.747 33.104)">
    <g id="Group_643" data-name="Group 643">
      <path id="Path_1329" data-name="Path 1329" d="M47.821,32.145a.645.645,0,0,0-.265-.261.708.708,0,0,0-.343-.093.7.7,0,0,0-.345.093.65.65,0,0,0-.264.261.681.681,0,0,0-.093.348.707.707,0,0,0,.093.348.7.7,0,0,0,.261.262.714.714,0,0,0,.351.093.7.7,0,0,0,.346-.093.672.672,0,0,0,.259-.262.688.688,0,0,0,.093-.348A.7.7,0,0,0,47.821,32.145Zm-.432.738h0l-.066-.118a.627.627,0,0,0-.129-.178.166.166,0,0,0-.1-.027h-.07v.322H46.9v-.757h.261a.558.558,0,0,1,.19.022.169.169,0,0,1,.1.073.19.19,0,0,1,.034.111.216.216,0,0,1-.058.145.243.243,0,0,1-.157.069.164.164,0,0,1,.064.04.885.885,0,0,1,.112.148l.093.148Z" transform="translate(-46.51 -31.791)" fill="#b5b5b5"/>
    </g>
  </g>
  <g id="Group_646" data-name="Group 646" transform="translate(14.489 23.237)">
    <g id="Group_645" data-name="Group 645" transform="translate(0 0)">
      <path id="Path_1330" data-name="Path 1330" d="M11.7,25.211c-1.7,0-2.039.762-2.039,1.4a.842.842,0,0,0,.906.873c1.393,0,1.683-1.827,1.638-2.215A1.407,1.407,0,0,0,11.7,25.211Z" transform="translate(-9.662 -25.211)" fill="#b5b5b5"/>
    </g>
  </g>
  <g id="Group_648" data-name="Group 648" transform="translate(32.554 20.137)">
    <g id="Group_647" data-name="Group 647">
      <path id="Path_1331" data-name="Path 1331" d="M23.212,23.144c-1.261,0-1.5,1.435-1.5,1.587h2.569C24.277,24.615,24.518,23.144,23.212,23.144Z" transform="translate(-21.708 -23.144)" fill="#b5b5b5"/>
    </g>
  </g>
  <g id="Group_650" data-name="Group 650" transform="translate(63.725 20.387)">
    <g id="Group_649" data-name="Group 649" transform="translate(0 0)">
      <path id="Path_1332" data-name="Path 1332" d="M44.316,23.311c-1.018,0-1.824,1.182-1.822,2.977,0,1.095.39,1.8,1.224,1.8,1.254,0,1.858-1.636,1.858-2.855C45.576,23.884,45.148,23.311,44.316,23.311Z" transform="translate(-42.494 -23.311)" fill="#b5b5b5"/>
    </g>
  </g>
  <g id="Group_652" data-name="Group 652" transform="translate(69.564 26.026)">
    <g id="Group_651" data-name="Group 651">
      <path id="Path_1333" data-name="Path 1333" d="M47.478,27.366a.565.565,0,0,0-.219-.217.572.572,0,0,0-.286-.078.6.6,0,0,0-.286.078.527.527,0,0,0-.219.217.6.6,0,0,0-.079.292.584.584,0,0,0,.3.51.6.6,0,0,0,.289.081.589.589,0,0,0,.289-.081.569.569,0,0,0,.219-.219.582.582,0,0,0,.076-.291A.6.6,0,0,0,47.478,27.366Zm-.325.678-.067-.117a.605.605,0,0,0-.126-.177.152.152,0,0,0-.1-.028h-.069v.321h-.126v-.756h.262a.535.535,0,0,1,.192.024.215.215,0,0,1,.1.072.174.174,0,0,1,.034.111.2.2,0,0,1-.06.144.235.235,0,0,1-.156.069.208.208,0,0,1,.064.039.766.766,0,0,1,.111.148l.093.15Z" transform="translate(-46.388 -27.071)" fill="#b5b5b5"/>
    </g>
  </g>
  <g id="Group_654" data-name="Group 654" transform="translate(52.005 23.237)">
    <g id="Group_653" data-name="Group 653" transform="translate(0 0)">
      <path id="Path_1334" data-name="Path 1334" d="M36.718,25.211c-1.7,0-2.039.762-2.039,1.4a.841.841,0,0,0,.906.873c1.393,0,1.681-1.827,1.638-2.215A1.425,1.425,0,0,0,36.718,25.211Z" transform="translate(-34.679 -25.211)" fill="#b5b5b5"/>
    </g>
  </g>
  <g id="Group_656" data-name="Group 656" transform="translate(69.968 26.344)">
    <g id="Group_655" data-name="Group 655">
      <path id="Path_1335" data-name="Path 1335" d="M46.967,27.335a.137.137,0,0,0-.051-.037.425.425,0,0,0-.123-.015h-.136v.228h.148a.237.237,0,0,0,.145-.031.117.117,0,0,0,.036-.084A.1.1,0,0,0,46.967,27.335Z" transform="translate(-46.657 -27.283)" fill="#b5b5b5"/>
    </g>
  </g>
</svg>
