<svg id="paypal-logo" xmlns="http://www.w3.org/2000/svg" width="138.382" height="37.462" viewBox="0 0 138.382 37.462">
  <g id="Group_189" data-name="Group 189" transform="translate(0 2.328)">
    <g id="Group_188" data-name="Group 188">
      <path id="Path_360" data-name="Path 360" d="M24.8,23a5.609,5.609,0,0,0-2.059-2.221,9.645,9.645,0,0,0-3.275-1.2,26.766,26.766,0,0,0-4.45-.351l-7.871.005a1.972,1.972,0,0,0-1.812,1.439L.041,43.739A1.115,1.115,0,0,0,1.18,45.172H4.949a1.929,1.929,0,0,0,1.809-1.433l1.293-5.6a1.931,1.931,0,0,1,1.806-1.43h1.079c4.609-.005,8.178-.947,10.742-2.833A8.823,8.823,0,0,0,25.527,26.4,7.011,7.011,0,0,0,24.8,23ZM16.674,30.54a7.926,7.926,0,0,1-4.766,1.252h-.922a1.123,1.123,0,0,1-1.145-1.439l1.134-4.9a1.907,1.907,0,0,1,1.8-1.43l1.235-.008a6.031,6.031,0,0,1,3.278.733A2.492,2.492,0,0,1,18.37,27,4.08,4.08,0,0,1,16.674,30.54Z" transform="translate(0 -19.229)" fill="#adadad"/>
    </g>
  </g>
  <g id="Group_191" data-name="Group 191" transform="translate(129.971 0)">
    <g id="Group_190" data-name="Group 190">
      <path id="Path_361" data-name="Path 361" d="M49.624,22.515l-.236.071-.316.044-.387-.06-.2-.192-.091-.3-.006-.453V19.946h1.26v-.519h-1.26V18.381h-.623v1.046h-.423v.519h.423V21.9l.291.966.857.307.36-.03.382-.074v-.552Z" transform="translate(-47.345 -18.381)" fill="#adadad"/>
    </g>
  </g>
  <g id="Group_193" data-name="Group 193" transform="translate(133.021 0.942)">
    <g id="Group_192" data-name="Group 192">
      <path id="Path_362" data-name="Path 362" d="M53.529,19.095l-.9-.371-.664.135-.675.456-.393-.436-.637-.151-.612.135-.579.373v-.406h-.612v3.665h.609V19.756l.513-.318.511-.126.417.074.206.211.091.351.03.453V22.5h.612V20.152l-.011-.195-.011-.178.522-.332.516-.129.4.074.22.211.077.354.041.447V22.5h.615v-2.38Z" transform="translate(-48.456 -18.724)" fill="#adadad"/>
    </g>
  </g>
  <g id="Group_195" data-name="Group 195" transform="translate(23.435 8.197)">
    <g id="Group_194" data-name="Group 194">
      <path id="Path_363" data-name="Path 363" d="M28.08,22.569q-2.133-1.2-6.737-1.2a29.771,29.771,0,0,0-4.56.354c-1.128.173-1.238.206-1.933.357a2.211,2.211,0,0,0-1.658,1.743l-.461,1.9c-.261,1.211.436,1.164.727,1.062a19.588,19.588,0,0,1,2.254-.664,16.158,16.158,0,0,1,3.53-.472,9.3,9.3,0,0,1,3.429.483,1.732,1.732,0,0,1,1.137,1.713l-.066.533-.544.335c-2.139.135-3.684.332-5.559.6a17.242,17.242,0,0,0-4.779,1.315,7.43,7.43,0,0,0-3.245,2.559,6.973,6.973,0,0,0-1.079,3.942,4.657,4.657,0,0,0,1.535,3.58,5.762,5.762,0,0,0,3.972,1.356,10.837,10.837,0,0,0,2.366-.22l1.826-.629,1.546-.857L21.2,39.42l.019.027-.143.6-.008.025v.005a1.121,1.121,0,0,0,1.007,1.411l.014.016h3.5l.049-.022a1.949,1.949,0,0,0,1.622-1.411l2.748-11.9.143-.969.066-.909A3.977,3.977,0,0,0,28.08,22.569ZM22,35.944l-.587.774-1.482.766a5.278,5.278,0,0,1-1.971.426,4.523,4.523,0,0,1-2.147-.409l-.727-1.414a2.826,2.826,0,0,1,.552-1.839l1.6-1.087a13.817,13.817,0,0,1,2.484-.56c.862-.107,2.564-.3,2.786-.307l.261.458C22.716,33.012,22.233,35.033,22,35.944Z" transform="translate(-8.537 -21.367)" fill="#adadad"/>
    </g>
  </g>
  <g id="Group_197" data-name="Group 197" transform="translate(91.895 8.211)">
    <g id="Group_196" data-name="Group 196">
      <path id="Path_364" data-name="Path 364" d="M53.018,22.577q-2.145-1.2-6.734-1.205a28.7,28.7,0,0,0-4.557.362c-1.131.165-1.244.2-1.941.349a2.2,2.2,0,0,0-1.653,1.746l-.461,1.894c-.258,1.211.423,1.156.741,1.062a22.33,22.33,0,0,1,2.235-.667,16.858,16.858,0,0,1,3.539-.472,9.256,9.256,0,0,1,3.421.486,1.728,1.728,0,0,1,1.137,1.71l-.058.53-.538.343c-2.16.129-3.709.327-5.565.6A17.248,17.248,0,0,0,37.8,30.629a7.423,7.423,0,0,0-3.245,2.564,6.886,6.886,0,0,0-1.082,3.926A4.605,4.605,0,0,0,35.018,40.7a5.768,5.768,0,0,0,3.964,1.364,10.5,10.5,0,0,0,2.364-.222l1.82-.62,1.559-.857,1.411-.95.025.03-.129.609-.014.011.005.011a1.1,1.1,0,0,0,1,1.411l.005.014h3.5l.058-.019a1.929,1.929,0,0,0,1.6-1.422l2.756-11.879.146-.975.08-.911A3.971,3.971,0,0,0,53.018,22.577ZM46.954,35.952l-.612.782-1.469.76a5.339,5.339,0,0,1-1.963.426,4.389,4.389,0,0,1-2.144-.412L40.031,36.1a2.946,2.946,0,0,1,.538-1.845,3.862,3.862,0,0,1,1.614-1.084,14,14,0,0,1,2.482-.557c.857-.107,2.553-.307,2.773-.31l.266.458C47.665,33.023,47.179,35.035,46.954,35.952Z" transform="translate(-33.475 -21.372)" fill="#adadad"/>
    </g>
  </g>
  <g id="Group_199" data-name="Group 199" transform="translate(68.447 2.41)">
    <g id="Group_198" data-name="Group 198">
      <path id="Path_365" data-name="Path 365" d="M49.738,23.036a5.832,5.832,0,0,0-2.075-2.229,9.251,9.251,0,0,0-3.275-1.2,25.913,25.913,0,0,0-4.434-.346l-7.882.005a1.958,1.958,0,0,0-1.8,1.433l-5.3,23.077A1.117,1.117,0,0,0,26.11,45.2l3.775-.005A1.954,1.954,0,0,0,31.7,43.771l1.277-5.6a1.955,1.955,0,0,1,1.812-1.43h1.079c4.615,0,8.192-.95,10.767-2.83a8.922,8.922,0,0,0,3.832-7.486A7.353,7.353,0,0,0,49.738,23.036Zm-8.129,7.547a8.025,8.025,0,0,1-4.755,1.235h-.939a1.128,1.128,0,0,1-1.153-1.436L35.9,25.494a1.916,1.916,0,0,1,1.8-1.43l1.222-.008a6.1,6.1,0,0,1,3.278.73,2.513,2.513,0,0,1,1.1,2.246A4.137,4.137,0,0,1,41.609,30.583Z" transform="translate(-24.934 -19.259)" fill="#adadad"/>
    </g>
  </g>
  <g id="Group_201" data-name="Group 201" transform="translate(114.187 2.616)">
    <g id="Group_200" data-name="Group 200">
      <path id="Path_366" data-name="Path 366" d="M52.979,20.751a1.1,1.1,0,0,0-1.131-1.417H48.471a1.912,1.912,0,0,0-1.62,1.145l-.187.291-.17.747L41.776,42.968l-.154.659.005.016a1.069,1.069,0,0,0,.947,1.34l.058.08h3.506A1.914,1.914,0,0,0,47.763,43.9l.181-.275L52.99,20.753Z" transform="translate(-41.595 -19.334)" fill="#adadad"/>
    </g>
  </g>
  <g id="Group_203" data-name="Group 203" transform="translate(46.375 8.485)">
    <g id="Group_202" data-name="Group 202">
      <path id="Path_367" data-name="Path 367" d="M39.109,21.472c-.892.011-4.519,0-4.519,0a3.267,3.267,0,0,0-2.372,1.439S26.822,32.173,26.3,33.1l-.626-.008-1.68-10.122A2.076,2.076,0,0,0,21.938,21.5l-3.377.005a1.114,1.114,0,0,0-1.128,1.439S20,37.532,20.511,40.966c.239,1.894-.03,2.232-.03,2.232l-3.338,5.814c-.494.791-.228,1.436.582,1.436l3.9-.005a3.155,3.155,0,0,0,2.364-1.433l15.016-25.4S40.452,21.442,39.109,21.472Z" transform="translate(-16.893 -21.472)" fill="#adadad"/>
    </g>
  </g>
</svg>
