<svg id="visa-pay-logo" xmlns="http://www.w3.org/2000/svg" width="91.623" height="28.205" viewBox="0 0 91.623 28.205">
  <g id="Group_205" data-name="Group 205" transform="translate(32.03 0.469)">
    <g id="Group_204" data-name="Group 204" transform="translate(0 0)">
      <path id="Path_368" data-name="Path 368" d="M21.378,16.8,16.722,44.125h7.447L28.829,16.8Z" transform="translate(-16.722 -16.799)" fill="#adadad"/>
    </g>
  </g>
  <g id="Group_207" data-name="Group 207" transform="translate(7.397 0.494)">
    <g id="Group_206" data-name="Group 206" transform="translate(0 0)">
      <path id="Path_369" data-name="Path 369" d="M22.25,16.818,14.956,35.453l-.778-2.814C12.74,29.249,8.656,24.38,3.862,21.311L10.532,44.1l7.88-.013L30.14,16.812Z" transform="translate(-3.862 -16.812)" fill="#adadad"/>
    </g>
  </g>
  <g id="Group_209" data-name="Group 209" transform="translate(0 0.236)">
    <g id="Group_208" data-name="Group 208">
      <path id="Path_370" data-name="Path 370" d="M14.887,18.9c-.433-1.665-1.687-2.161-3.245-2.22H.1l-.1.544c8.985,2.18,14.931,7.432,17.4,13.747Z" transform="translate(0 -16.677)" fill="#adadad"/>
    </g>
  </g>
  <g id="Group_211" data-name="Group 211" transform="translate(44.137 0)">
    <g id="Group_210" data-name="Group 210">
      <path id="Path_371" data-name="Path 371" d="M38.137,22.262a13.748,13.748,0,0,1,5.574,1.046l.672.316L45.39,17.7a19.223,19.223,0,0,0-6.671-1.147c-7.359,0-12.546,3.706-12.586,9.018C26.085,29.5,29.827,31.688,32.655,33c2.9,1.341,3.875,2.193,3.861,3.39-.023,1.829-2.314,2.668-4.453,2.668a15.632,15.632,0,0,1-7.012-1.431l-.96-.437L23.043,43.3a23.585,23.585,0,0,0,8.3,1.456c7.828,0,12.916-3.662,12.969-9.338.033-3.1-1.954-5.474-6.258-7.419-2.6-1.268-4.2-2.111-4.183-3.39C33.869,23.476,35.221,22.262,38.137,22.262Z" transform="translate(-23.043 -16.554)" fill="#adadad"/>
    </g>
  </g>
  <g id="Group_213" data-name="Group 213" transform="translate(64.883 0.5)">
    <g id="Group_212" data-name="Group 212" transform="translate(0 0)">
      <path id="Path_372" data-name="Path 372" d="M54.587,16.815H48.833c-1.787,0-3.116.487-3.9,2.268L33.874,44.126h7.821s1.276-3.367,1.565-4.1c.856,0,8.455.011,9.537.011.222.954.908,4.093.908,4.093h6.909ZM45.4,34.428c.613-1.569,2.967-7.637,2.967-7.637-.04.075.607-1.58.992-2.609l.5,2.356,1.726,7.89Z" transform="translate(-33.874 -16.815)" fill="#adadad"/>
    </g>
  </g>
</svg>
