<svg id="webmoney-paying-logo" xmlns="http://www.w3.org/2000/svg" width="136.954" height="36.059" viewBox="0 0 136.954 36.059">
  <g id="Group_215" data-name="Group 215" transform="translate(126.012 17.842)">
    <g id="Group_214" data-name="Group 214" transform="translate(0 0)">
      <rect id="Rectangle_110" data-name="Rectangle 110" width="4.332" height="4.329" transform="translate(0 2.904) rotate(-42.098)" fill="#adadad"/>
    </g>
  </g>
  <g id="Group_217" data-name="Group 217" transform="translate(118.535 20.455)">
    <g id="Group_216" data-name="Group 216" transform="translate(0 0)">
      <rect id="Rectangle_111" data-name="Rectangle 111" width="5.768" height="5.77" transform="matrix(0.743, -0.669, 0.669, 0.743, 0, 3.859)" fill="#adadad"/>
    </g>
  </g>
  <g id="Group_219" data-name="Group 219" transform="translate(132.883 16.82)">
    <g id="Group_218" data-name="Group 218" transform="translate(0 0)">
      <rect id="Rectangle_112" data-name="Rectangle 112" width="2.882" height="2.882" transform="translate(0 1.93) rotate(-42.029)" fill="#adadad"/>
    </g>
  </g>
  <g id="Group_221" data-name="Group 221" transform="translate(120.295 4.593)">
    <g id="Group_220" data-name="Group 220" transform="translate(0 0)">
      <rect id="Rectangle_113" data-name="Rectangle 113" width="4.329" height="4.329" transform="matrix(0.743, -0.669, 0.669, 0.743, 0, 2.896)" fill="#adadad"/>
    </g>
  </g>
  <g id="Group_223" data-name="Group 223" transform="translate(130.146 10.421)">
    <g id="Group_222" data-name="Group 222" transform="translate(0 0)">
      <rect id="Rectangle_114" data-name="Rectangle 114" width="2.88" height="2.882" transform="translate(0 1.931) rotate(-42.098)" fill="#adadad"/>
    </g>
  </g>
  <g id="Group_225" data-name="Group 225" transform="translate(0 10.602)">
    <g id="Group_224" data-name="Group 224">
      <path id="Path_373" data-name="Path 373" d="M14.366,22.239l-2.1,10.885H12.12L9.26,22.239H7.429L4.755,33.124H4.609l-2.3-10.885H0L3.333,36.827H5.556l2.715-10.27h.145l2.8,10.27h2.224l3.335-14.588Z" transform="translate(0 -22.239)" fill="#adadad"/>
    </g>
  </g>
  <g id="Group_227" data-name="Group 227" transform="translate(115.488 13.025)">
    <g id="Group_226" data-name="Group 226" transform="translate(0 0)">
      <rect id="Rectangle_115" data-name="Rectangle 115" width="5.773" height="5.77" transform="matrix(0.743, -0.669, 0.669, 0.743, 0, 3.862)" fill="#adadad"/>
    </g>
  </g>
  <g id="Group_229" data-name="Group 229" transform="translate(112.426 5.717)">
    <g id="Group_228" data-name="Group 228" transform="translate(0 0)">
      <rect id="Rectangle_116" data-name="Rectangle 116" width="5.77" height="5.77" transform="matrix(0.743, -0.669, 0.669, 0.743, 0, 3.86)" fill="#adadad"/>
    </g>
  </g>
  <g id="Group_231" data-name="Group 231" transform="translate(123.258 11.063)">
    <g id="Group_230" data-name="Group 230" transform="translate(0 0)">
      <rect id="Rectangle_117" data-name="Rectangle 117" width="4.324" height="4.332" transform="translate(0 2.897) rotate(-42.069)" fill="#adadad"/>
    </g>
  </g>
  <g id="Group_233" data-name="Group 233" transform="translate(127.39 4.062)">
    <g id="Group_232" data-name="Group 232" transform="translate(0 0)">
      <rect id="Rectangle_118" data-name="Rectangle 118" width="2.882" height="2.882" transform="translate(0 1.93) rotate(-42.029)" fill="#adadad"/>
    </g>
  </g>
  <g id="Group_235" data-name="Group 235" transform="translate(86.957 15.003)">
    <g id="Group_234" data-name="Group 234">
      <path id="Path_374" data-name="Path 374" d="M39.03,23.842l-2.336,7.58h-.124l-2.633-7.577H31.676l3.948,10.292c-.494,1.524-1.356,2.633-2.756,2.633v1.683c2.364,0,3.618-1.48,4.648-4.321l3.72-10.289h-2.2Z" transform="translate(-31.676 -23.842)" fill="#adadad"/>
    </g>
  </g>
  <g id="Group_237" data-name="Group 237" transform="translate(17.372 14.66)">
    <g id="Group_236" data-name="Group 236">
      <path id="Path_375" data-name="Path 375" d="M15.151,28.741c0-3.363-1.581-5.024-4.154-5.024-3.086,0-4.67,2.259-4.67,5.389,0,3.253,1.422,5.392,4.875,5.392a7.193,7.193,0,0,0,3.64-.953V31.988a6.338,6.338,0,0,1-3.27,1.068c-2.117,0-3.127-1.087-3.127-3.561h6.7Zm-6.663-.626c.225-2.053,1.194-3.023,2.449-3.023,1.112,0,2.16.859,2.262,3.023Z" transform="translate(-6.328 -23.717)" fill="#adadad"/>
    </g>
  </g>
  <g id="Group_239" data-name="Group 239" transform="translate(128.843 24.342)">
    <g id="Group_238" data-name="Group 238" transform="translate(0 0)">
      <rect id="Rectangle_119" data-name="Rectangle 119" width="4.329" height="4.332" transform="translate(0 2.898) rotate(-42.021)" fill="#adadad"/>
    </g>
  </g>
  <g id="Group_241" data-name="Group 241" transform="translate(77.486 14.66)">
    <g id="Group_240" data-name="Group 240">
      <path id="Path_376" data-name="Path 376" d="M37.046,28.741c.005-3.363-1.581-5.024-4.151-5.024-3.088,0-4.67,2.259-4.67,5.389,0,3.253,1.419,5.392,4.873,5.392a7.19,7.19,0,0,0,3.637-.953V31.988a6.321,6.321,0,0,1-3.267,1.068c-2.117,0-3.13-1.087-3.13-3.561h6.707Zm-6.665-.626c.231-2.053,1.2-3.023,2.454-3.023,1.106,0,2.16.859,2.262,3.023Z" transform="translate(-28.226 -23.717)" fill="#adadad"/>
    </g>
  </g>
  <g id="Group_243" data-name="Group 243" transform="translate(100.755 0)">
    <g id="Group_242" data-name="Group 242">
      <path id="Path_377" data-name="Path 377" d="M62.364,46.365,58.172,50.23,51.1,42.354l1.968-1.732-4.955-5.548,1.979-1.735L45.058,27.8l7.849-7.066L55.4,23.458,59.608,19.7,62.1,22.281,63.753,20.8c-.371-.214-.741-.412-1.117-.59a18.031,18.031,0,1,0,.983,31.881,19.65,19.65,0,0,0,2.372-1.576Z" transform="translate(-36.702 -18.377)" fill="#adadad"/>
    </g>
  </g>
  <g id="Group_245" data-name="Group 245" transform="translate(28.067 9.556)">
    <g id="Group_244" data-name="Group 244">
      <path id="Path_378" data-name="Path 378" d="M15.143,26.961a6.216,6.216,0,0,0-2.781.76V21.858l-2.139.513V36.732a9.573,9.573,0,0,0,4.014,1.008c2.984,0,4.834-1.875,4.834-5.724C19.072,28.729,17.694,26.961,15.143,26.961ZM14.238,36.3a4.751,4.751,0,0,1-1.891-.327V29.243a4.3,4.3,0,0,1,2.24-.678c1.378,0,2.328.846,2.328,3.454C16.914,35.351,15.761,36.3,14.238,36.3Z" transform="translate(-10.224 -21.858)" fill="#adadad"/>
    </g>
  </g>
  <g id="Group_247" data-name="Group 247" transform="translate(66.934 14.654)">
    <g id="Group_246" data-name="Group 246">
      <path id="Path_379" data-name="Path 379" d="M29.628,23.715a10.53,10.53,0,0,0-5.246,1.521v9.01h2.136V26.1a5.673,5.673,0,0,1,2.509-.741c1.057,0,1.856.288,1.856,1.913v6.976h2.139V26.8C33.021,24.687,32.093,23.72,29.628,23.715Z" transform="translate(-24.382 -23.715)" fill="#adadad"/>
    </g>
  </g>
  <g id="Group_249" data-name="Group 249" transform="translate(39.185 10.602)">
    <g id="Group_248" data-name="Group 248">
      <path id="Path_380" data-name="Path 380" d="M25.873,22.239l-4.4,11.5h-.1l-4.609-11.5H14.274V36.827h1.85V26.5h.184l4.2,10.33h1.315l4.2-10.58H26.2v10.58h2.221V22.239Z" transform="translate(-14.274 -22.239)" fill="#adadad"/>
    </g>
  </g>
  <g id="Group_251" data-name="Group 251" transform="translate(55.596 14.66)">
    <g id="Group_250" data-name="Group 250">
      <path id="Path_381" data-name="Path 381" d="M24.944,23.717c-2.715,0-4.692,1.79-4.692,5.389,0,3.517,1.875,5.392,4.692,5.392s4.692-1.875,4.692-5.392C29.635,25.5,27.659,23.717,24.944,23.717Zm0,9.337c-1.46,0-2.531-1.126-2.531-3.948,0-2.778,1.175-3.95,2.531-3.95,1.4,0,2.531,1.172,2.531,3.95C27.475,31.925,26.4,33.054,24.944,33.054Z" transform="translate(-20.252 -23.717)" fill="#adadad"/>
    </g>
  </g>
</svg>
