<svg xmlns="http://www.w3.org/2000/svg" width="818.154" height="401.393" viewBox="0 0 818.154 401.393">
  <g id="Group_31120" data-name="Group 31120" transform="translate(0)">
    <path id="Path_99383" data-name="Path 99383" d="M1068.231,709.068c5.677,5.148-230.824,5.148-225.13,0C837.425,703.919,1073.925,703.919,1068.231,709.068Z" transform="translate(-250.179 -311.535)" fill="#e6e6e6"/>
    <path id="Path_99384" data-name="Path 99384" d="M1037.051,511.581c12.517,17.693,15.823,118.394,16.56,150.673.019.727.038,1.417.047,2.069h31.684c.387-.69.746-1.37,1.086-2.069,18.78-37.068,8.36-81.515,7.812-83.763,1.426,7.066-5.026,27.546-12.318,47.384C1077.473,564.878,1039.431,514.66,1037.051,511.581Z" transform="translate(-297.498 -264.32)" fill="#e6e6e6"/>
    <path id="Path_99385" data-name="Path 99385" d="M211.3,251.277c-24.8,35.063-31.357,234.623-32.817,298.59-.037,1.441-.075,2.808-.094,4.1H115.6c-.768-1.367-1.479-2.714-2.153-4.1C76.228,476.408,96.876,388.328,97.962,383.873c-2.827,14,9.959,54.589,24.411,93.9C131.191,356.9,206.578,257.379,211.3,251.277Z" transform="translate(-66.871 -200.844)" fill="#e6e6e6"/>
    <path id="Path_99386" data-name="Path 99386" d="M495.1,645.782c10.991,12.679-446.931,12.679-435.906,0C48.2,633.1,506.127,633.1,495.1,645.782Z" transform="translate(-59 -294.726)" fill="#e6e6e6"/>
    <path id="Path_40" data-name="Path 40" d="M948.037,639.456c-1.76,0-1.8,5.482,0,5.481h65.75c.77.025,1.4-1.182,1.417-2.7.015-1.545-.632-2.814-1.417-2.786Z" transform="translate(-275.467 -295.502)" fill="#3f3d56"/>
    <path id="Path_40-2" data-name="Path 40" d="M975.37,612.456c-2.285,0-2.3,5.481,0,5.481h24.2c.991.025,1.808-1.182,1.824-2.7.019-1.545-.813-2.814-1.824-2.786Z" transform="translate(-282.038 -288.918)" fill="#cecece"/>
    <path id="Path_40-3" data-name="Path 40" d="M948.037,667.456c-1.76,0-1.8,5.481,0,5.481h65.75c.77.025,1.4-1.182,1.417-2.7.015-1.545-.632-2.814-1.417-2.786Z" transform="translate(-275.467 -302.33)" fill="#3f3d56"/>
    <path id="Path_99387" data-name="Path 99387" d="M1022.543,576.581H928.781A3.782,3.782,0,0,0,925,580.361v93.763a3.782,3.782,0,0,0,3.781,3.781h93.763a3.782,3.782,0,0,0,3.781-3.781V580.361A3.782,3.782,0,0,0,1022.543,576.581Zm2.268,97.543a2.275,2.275,0,0,1-2.269,2.268H928.781a2.275,2.275,0,0,1-2.268-2.268V580.361a2.275,2.275,0,0,1,2.268-2.268h93.763a2.275,2.275,0,0,1,2.268,2.268Z" transform="translate(-270.175 -280.17)" fill="#3f3d56"/>
    <path id="Path_99388" data-name="Path 99388" d="M878.451,466.919l7.607-3.8L879.719,446l-1.671-8.631a6.526,6.526,0,0,0-10.654-3.715h0a6.526,6.526,0,0,0-.849,9.032l6.2,7.751Z" transform="translate(-255.572 -244.934)" fill="#a0616a"/>
    <path id="Path_99389" data-name="Path 99389" d="M879.4,467.588l1.4,4.391,6.3,19.726a10.548,10.548,0,0,0,19.1,2.218l20.41-34.981a11.007,11.007,0,0,0,.833-1.711,10.77,10.77,0,0,0-19.732-8.583L895.244,475.2l-5.7-12.677Z" transform="translate(-259.054 -247.505)" fill="#e6e6e6"/>
    <path id="Path_99390" data-name="Path 99390" d="M883.281,614.1l13.945,1.268,7.607-55.147c25.074,4.218,48.728,5.57,69.189.467A12.917,12.917,0,0,0,983.2,544.1c-2.449-7.308-6.763-15.14-11.813-23.178l-33.6,12.044-1.268,5.071L900.693,533.5A13.152,13.152,0,0,0,885.9,546.042Z" transform="translate(-260.001 -266.597)" fill="#2f2e41"/>
    <path id="Path_99391" data-name="Path 99391" d="M863.18,654.439h0a4.988,4.988,0,0,1,2.232-4.891l14.315-7.025,10.793,1.362,2.549,9.138a4.863,4.863,0,0,1-4.254,5.627l-20.139.044A4.988,4.988,0,0,1,863.18,654.439Z" transform="translate(-255.088 -296.25)" fill="#2f2e41"/>
    <path id="Path_99392" data-name="Path 99392" d="M878.622,604.776l13.945,1.268,7.607-55.148c25.074,4.218,48.728,5.57,69.189.467a12.917,12.917,0,0,0,9.182-16.589c-2.449-7.308-6.763-15.14-11.813-23.178l-33.6,12.044-1.268,5.071-35.834-4.536a13.152,13.152,0,0,0-14.794,12.543Z" transform="translate(-258.865 -264.323)" fill="#2f2e41"/>
    <path id="Path_99393" data-name="Path 99393" d="M858.522,645.115h0a4.988,4.988,0,0,1,2.232-4.891l14.315-7.025,10.793,1.362,2.549,9.138a4.863,4.863,0,0,1-4.254,5.627l-20.139.044a4.987,4.987,0,0,1-5.5-4.254Z" transform="translate(-253.952 -293.976)" fill="#2f2e41"/>
    <circle id="Ellipse_787" data-name="Ellipse 787" cx="17.115" cy="17.115" r="17.115" transform="translate(627.997 155.36)" fill="#a0616a"/>
    <path id="Path_99394" data-name="Path 99394" d="M851.744,265.821l19.65-2.535-7.607-23.453H844.771Z" transform="translate(-205.998 -58.483)" fill="#a0616a"/>
    <path id="Path_99395" data-name="Path 99395" d="M905.389,478.667a26.847,26.847,0,0,0,4.277,7.653,36.5,36.5,0,0,0,9.3,8.109c.616.4,1.255.781,1.916,1.158l3.775,3.216,13.339,11.36,36.766-13.943c-8.109-18.021-18.226-32.266-29.82-43.74a20.914,20.914,0,0,0-22.349-8.509l-13.755,3.439C903.94,458.959,902.121,469.577,905.389,478.667Z" transform="translate(-264.99 -247.681)" fill="#e6e6e6"/>
    <path id="Path_99396" data-name="Path 99396" d="M862.335,424.717a1.316,1.316,0,0,0-1.647-.162c-.336.355-11.347,6.88-10.657,7.527a1.319,1.319,0,0,0,.383,1.074L876,458.634a1.321,1.321,0,0,0,.947.386c.515.658,8.9-8.9,9.325-9.083a1.327,1.327,0,0,0-.027-1.867Z" transform="translate(-251.886 -243.045)" fill="#3f3d56"/>
    <path id="Path_99397" data-name="Path 99397" d="M853.4,432.232l1.041-.664a1,1,0,0,0,1.428,1.3l6.739-4.633a1,1,0,0,0-.262-1.763c.267-.091.7-.632.987-.291L886,448.462c.808.393-8.237,8.231-8.242,8.539-.675.752-23.928-24.191-24.423-24.208a.362.362,0,0,1,.062-.56Z" transform="translate(-252.673 -243.469)" fill="#fff"/>
    <path id="Path_99398" data-name="Path 99398" d="M821.474,259.678l-6.954,6.557-16.542-16.342,8.395-5.465Z" transform="translate(-194.587 -59.604)" fill="#cecece"/>
    <path id="Path_99399" data-name="Path 99399" d="M857.233,440.971c.4-.289-1.37-1.575-1.446-1.787a.247.247,0,0,0-.34,0c-.4.289,1.37,1.575,1.446,1.787A.247.247,0,0,0,857.233,440.971Z" transform="translate(-253.2 -246.649)" fill="#e6e6e6"/>
    <path id="Path_99400" data-name="Path 99400" d="M860.456,443.857c-.218-.08-1.492-1.838-1.787-1.447-.4.289,1.37,1.575,1.446,1.787C860.333,444.42,860.68,444.075,860.456,443.857Z" transform="translate(-253.986 -247.439)" fill="#e6e6e6"/>
    <path id="Path_99401" data-name="Path 99401" d="M885.69,456.11a1.625,1.625,0,0,0,3.249,0A1.625,1.625,0,0,0,885.69,456.11Z" transform="translate(-260.589 -250.408)" fill="#cecece"/>
    <path id="Path_99402" data-name="Path 99402" d="M911.577,491.379a36.5,36.5,0,0,0,9.3,8.109c.616.4,1.255.781,1.916,1.158l3.775,3.216c7.493-9.849,7.071-39.771,7.071-39.771l-11.406,1.141Z" transform="translate(-266.901 -252.739)" opacity="0.2"/>
    <path id="Path_99403" data-name="Path 99403" d="M877.675,478.566l7.607-3.8-6.339-17.115-1.671-8.631a6.526,6.526,0,0,0-10.654-3.715h0a6.526,6.526,0,0,0-.849,9.032l6.2,7.751Z" transform="translate(-255.382 -247.774)" fill="#a0616a"/>
    <path id="Path_99404" data-name="Path 99404" d="M888.764,474.166l-10.142,5.071,7.7,24.117a10.55,10.55,0,0,0,7.607,7.056h0a10.55,10.55,0,0,0,11.491-4.835l20.41-34.983a10.77,10.77,0,0,0-3.473-14.639h0a10.77,10.77,0,0,0-15.427,4.348l-12.457,26.544Z" transform="translate(-258.865 -250.347)" fill="#e6e6e6"/>
    <path id="Path_99405" data-name="Path 99405" d="M899.636,397.6a16.784,16.784,0,0,1-4.661,2.751,6.234,6.234,0,0,1-5.247-.377,5.984,5.984,0,0,1-2.449-5.581,12.027,12.027,0,0,1,2.478-5.829,24.953,24.953,0,0,1,40.358-.223,14,14,0,0,1,3.009,7.4c.245,4.755-3.009,9.193-2.661,13.941.294,4.016,3.177,7.456,6.591,9.592s7.359,3.218,11.177,4.5,7.677,2.865,10.5,5.734,4.383,7.322,2.833,11.038c-1.274,3.054-4.3,5-7.339,6.311a35.787,35.787,0,0,1-25.667.963c-3.09-1.071-6.463-3.214-6.51-6.484a14.861,14.861,0,0,1,1-4.118c.383-1.366.455-3-.507-4.04-1.193-1.294-3.4-1-4.823.036s-2.353,2.6-3.529,3.907a10.424,10.424,0,0,1-8.928,3.606c-3.309-.468-6.3-3.287-6.437-6.626-.235-5.736,6.952-9.328,7.733-15.015.522-3.8-1.951-7.274-4.094-10.453s-4.136-7.163-2.636-10.692" transform="translate(-260.966 -231.789)" fill="#2f2e41"/>
    <path id="Path_99406" data-name="Path 99406" d="M495.478,564.436H213.085a5.236,5.236,0,0,1-5.229-5.23V317.724a5.236,5.236,0,0,1,5.229-5.23H495.478a5.236,5.236,0,0,1,5.23,5.229V559.207a5.236,5.236,0,0,1-5.23,5.229ZM213.085,314.586a3.141,3.141,0,0,0-3.138,3.138V559.207a3.141,3.141,0,0,0,3.138,3.138H495.478a3.141,3.141,0,0,0,3.138-3.138V317.724a3.141,3.141,0,0,0-3.138-3.138Z" transform="translate(-95.298 -215.772)" fill="#3f3d56"/>
    <circle id="Ellipse_788" data-name="Ellipse 788" cx="21.302" cy="21.302" r="21.302" transform="translate(140.362 284.419)" fill="#e6e6e6"/>
    <path id="Path_99407" data-name="Path 99407" d="M336.718,570.113a3.55,3.55,0,0,0,0,7.1H504.092a3.55,3.55,0,1,0,0-7.1Z" transform="translate(-125.856 -278.593)" fill="#e6e6e6"/>
    <path id="Path_99408" data-name="Path 99408" d="M336.718,598.285a3.55,3.55,0,1,0,0,7.1H408.74a3.55,3.55,0,0,0,0-7.1Z" transform="translate(-125.856 -285.463)" fill="#e6e6e6"/>
    <path id="Path_99409" data-name="Path 99409" d="M584.207,490.958H301.815a5.236,5.236,0,0,1-5.229-5.23V361.8a5.236,5.236,0,0,1,5.229-5.23H584.207a5.236,5.236,0,0,1,5.229,5.229V485.728a5.236,5.236,0,0,1-5.229,5.229Z" transform="translate(-116.935 -226.52)" fill="#0058ff"/>
    <path id="Path_99410" data-name="Path 99410" d="M378.412,413.7a3.55,3.55,0,1,0,0,7.1H545.786a3.55,3.55,0,1,0,0-7.1Z" transform="translate(-136.023 -240.451)" fill="#fff"/>
    <path id="Path_99411" data-name="Path 99411" d="M378.412,440.9a3.55,3.55,0,1,0,0,7.1H545.786a3.55,3.55,0,0,0,0-7.1Z" transform="translate(-136.023 -247.085)" fill="#fff"/>
    <path id="Path_99412" data-name="Path 99412" d="M378.412,467.779a3.55,3.55,0,1,0,0,7.1h72.022a3.55,3.55,0,0,0,0-7.1Z" transform="translate(-136.023 -253.639)" fill="#fff"/>
    <circle id="Ellipse_789" data-name="Ellipse 789" cx="21.302" cy="21.302" r="21.302" transform="translate(446.49 235.187)" fill="#0089ff"/>
    <path id="Path_99413" data-name="Path 99413" d="M614.121,345.517l-6.761-8.693,3.932-3.059,3.2,4.116,10.814-11.416,3.617,3.426Z" transform="translate(-148.105 -79.609)" fill="#fff"/>
    <path id="Path_99414" data-name="Path 99414" d="M556.279,39.583,521.664,47.5,507.039,19.92l29.6-11.555Z" transform="translate(-123.642 -2.04)" fill="#2f2e41"/>
    <path id="Path_99415" data-name="Path 99415" d="M645.462,446.279l12.973-11.789-27.977-63.108L606.01,341.291l39.941,17.288,4.156,44.019,19.862,6.833L667.4,354.47a17.9,17.9,0,0,0-11.211-15.776L623.415,325.53,617.548,300.9l-34.21-.49c-10.631,18.5-15.381,34.777-7.709,46.371l35.6,34.716Z" transform="translate(-184.06 -212.826)" fill="#2f2e41"/>
    <path id="Path_99416" data-name="Path 99416" d="M674.753,481.208s1.844-5.511,4.734-4.242,10.987,7.694,10.987,7.694,13.524,1.913,5.053,6.814-11.784,4.6-12.054,3.9-2.468-2.232-2.468-2.232l-3.2,2.045-5.393.506s-7.061-11.961-4.789-12.278S674.871,483.558,674.753,481.208Z" transform="translate(-207.305 -255.833)" fill="#2f2e41"/>
    <path id="Path_99417" data-name="Path 99417" d="M684.152,436.356s5.624-1.462,6.138,1.652-.452,13.405-.452,13.405,5.776,12.377-2.953,7.953S676.6,452,677.038,451.4s.524-3.286.524-3.286l-3.457-1.562-3.367-4.243s6.17-12.443,7.676-10.712S682.248,437.737,684.152,436.356Z" transform="translate(-208.173 -244.774)" fill="#2f2e41"/>
    <circle id="Ellipse_790" data-name="Ellipse 790" cx="12.538" cy="12.538" r="12.538" transform="translate(390.86 9.889)" fill="#ffb9b9"/>
    <path id="Path_99418" data-name="Path 99418" d="M588.121,257.084l30.436-4.394c-4.543-8.224-9.228-15.718-15.523-14.88-5.6-3.92-5.924-10.221-4.507-17.308l-15.234,4.072c1.34,4.368.822,8.2-2.748,11.165C585.533,242.762,588.761,249.85,588.121,257.084Z" transform="translate(-186.179 -193.34)" fill="#ffb9b9"/>
    <path id="Path_99419" data-name="Path 99419" d="M583.862,288.131c10.815,14.081,21.906,19.645,33.83-.484l.983-8.982c7.652-9.65,5.411-17.989-3.92-25.387l-4.5-10.581-6.782-1.093h0a6.9,6.9,0,0,1-5.706,11.4l-2.452-.173a6.9,6.9,0,0,1-4.744-2.38l-10.418-12.093-4.389,1.173a2.474,2.474,0,0,0-1.829,2.215L572.511,261.9C578.777,268.844,582.381,277.717,583.862,288.131Z" transform="translate(-184.22 -197.695)" fill="#e6e6e6"/>
    <path id="Path_99420" data-name="Path 99420" d="M567.987,282.961,544.034,278.1l15.909-14.8-6.055-10.95-25.714,27.35a3.657,3.657,0,0,0,2.344,6.049l34.825,3.857,1.429,6.3a5.355,5.355,0,0,0,8.109,3.326h0a5.355,5.355,0,0,0,.942-8.254Z" transform="translate(-173.186 -201.105)" fill="#ffb9b9"/>
    <path id="Path_99421" data-name="Path 99421" d="M629.214,327.2l-3.179,8.278a6.123,6.123,0,0,0,4.225,8.134h0a6.123,6.123,0,0,0,7.532-6.931l-1.346-8.189,4.422-32.753L636.917,274.1l-9.014,2.768,3,20.14Z" transform="translate(-197.172 -206.411)" fill="#ffb9b9"/>
    <path id="Path_99422" data-name="Path 99422" d="M623.741,271.644l13.628-5.315-7.6-16.644a10.771,10.771,0,0,0-9.148-6.28l-3.495-.212Z" transform="translate(-195.101 -198.873)" fill="#e6e6e6"/>
    <path id="Path_99423" data-name="Path 99423" d="M563.456,264.058l14.53-4.919-5.123-17.43a2.474,2.474,0,0,0-2.686-1.756h0a2.474,2.474,0,0,0-1.329.6l-14.843,13.169C556.845,258.4,559.868,258.517,563.456,264.058Z" transform="translate(-179.707 -198.078)" fill="#e6e6e6"/>
    <path id="Path_99424" data-name="Path 99424" d="M592.233,186.652s7.668,1.442,9.441,11.006a17.555,17.555,0,0,1,.15,4.883c-.177,1.841.08,5.729,4.077,10.307a100.223,100.223,0,0,1,7.278,9.347h0l-8.012,2.133-3.58-13.275a67.908,67.908,0,0,0-7.935-18.239l-.074-.118s-2.661,7.111-9.794,8.085l2.2-2.9s-8.338,4.82-13.062,6.293a3.1,3.1,0,0,0-1,5.4l.1.079c3.475,2.639,10.563,8.936,7.763,15.028s.465,7.2.465,7.2l-6.022-2.291-2.756-1.18.279,2.038-13.455.282s-3.636-.022,2.823-9.728c0,0,1.558-3.639.279-6.419a14.769,14.769,0,0,1-1.491-6.767C560.312,198.035,564.434,178.128,592.233,186.652Z" transform="translate(-180.505 -184.581)" fill="#2f2e41"/>
  </g>
</svg>
